<?xml version="1.0" encoding="UTF-8"?><svg id="e" xmlns="http://www.w3.org/2000/svg" viewBox="0 0 776.85 612.44"><path d="M753.68,256.44c-8.49,9-25.41,11.09-37.33,7.73s-21.82-12.11-28.44-22.58c-6.62-10.46-10.22-22.56-12.55-34.72-3.98-20.76-4.47-42.19-1.43-63.11,1.15-7.89,2.86-15.89,6.93-22.74,4.08-6.86,10.9-12.48,18.83-13.35,7.42-.81,14.61,2.51,21.21,6,7.76,4.09,15.63,8.79,20.39,16.16,4.32,6.67,5.62,14.87,5.85,22.81.51,17.47-3.67,34.78-9.46,51.28-2.12,6.06-4.57,12.2-8.94,16.89s-11.13,7.68-17.31,5.94c-5.04-1.42-8.86-5.73-10.95-10.52-2.1-4.79-2.71-10.09-3.24-15.29-.74-7.32-1.35-14.76-.01-21.99,1.33-7.23,4.85-14.35,10.88-18.55" fill="none"/><path d="M156.06,304c2.97-3.08,5.84-6.34,7.5-10.19,5.38-12.44-3.74-23.32-4.51-35.43-.58-9.1-1.39-34.46,3.33-76.54,1.53-13.58-1.18-25.54-6.07-35.83l-34.26,12.19s10.36,16.55,2.31,59.27c-6.56,34.82.93,56.49,5.6,65.83,3.29,6.58,4.26,14.03,2.18,21.03-2.97,10.02-11.79,20.89-36.33,19.32-22.19-1.42-32.28-22.59-36.82-43.4-5.78-26.5-2.95-54.07,7.66-79.23,6.21-14.73,15.53-30.71,29.16-41.89l-95.82.95s12.1,16.07,11.09,28.36l54.47-18.91S12.1,218.72,11.09,255.59c-1.01,36.87,31.27,106.84,54.47,102.11,16.89-3.44,32.77-11.77,47.23-20.37,15.85-9.43,30.66-20.27,43.27-33.33Z" fill="#eadabe"/><path d="M194.6,494.47l.33-120.56s-.99-15.42-35.13-44.77l-24.38,28.79s11.23,9.72,23.26,24.43c3.07,3.75,2.62,9.51,2.51,12.62l1.07,80.99s-1.07,36.37-20.36,33.96c-19.16-2.39-30.68-37.59-34.17-50.04-.8-2.85-1.95-9.89-1.84-12.85.36-10.32,1.35-26.23,1.81-43.72.41-15.64-.2-29.29-4.94-41.25l-36.6,12.68s9.32,12.59,1.03,61.58c-2.77,16.35-2.49,34.65,11.52,66.06,5.97,13.38,20.31,44.93,39.81,37.06,17.27-6.98,76.08-45,76.08-45Z" fill="#eadabe"/><path d="M206.02,307.16l28.15-24.29-20.87-16.82s3.43-45.46,6.57-73.05l-13.63-22.6-35.51,11.69,13.03,18.37-5.19,78.67,27.44,28.03Z" fill="#eadabe"/><path d="M338.43,173.84l12.77,18.55-6.29,78.59,27.05,28.41,28.49-23.89-20.64-17.11s4.06-45.4,7.6-72.95l-13.31-22.79-35.67,11.19Z" fill="#eadabe"/><path d="M316.03,219.62l21.06-30.22s-36.47,1.56-51.57-23.36c0,0-58.3,20.2-56.9,67.24,1.4,47.04,62.13,68.45,62.13,68.45l37.62-31.78s-91.68-1.91-66.41-82.3c0,0,12.29,24.6,54.06,31.97Z" fill="#eadabe"/><path d="M594.08,163.49s53.73,88.02-26.62,113.39c0,0,23.04-57.49,5.14-95.95l-36.83.06s12.27,62.31.5,88.97c0,0,49.97,36.19,87.71,8.08,37.74-28.11,12.66-104.43,12.66-104.43l-42.55-10.13Z" fill="#eadabe"/><path d="M397.12,410.11l17.26-34.34s-17.49,7.03-35.51-17.6c0,0-9.99,5.05-20.94,14.64l-11.43-16.13-34.08,15.89,14.94,18.15,3.28,83.78,30.32,26.95,25.41-28.5-22.57-15.73s-1.17-38.85-1.3-68.17c7.11,7.42,4.89,18.94,34.63,21.07Z" fill="#eadabe"/><path d="M463.29,298.12c14.69-14.69,47.1-27.85,47.1-27.85,56.72-86.6-51.15-106.35-51.15-106.35-19.24,15.7-44.57,23.3-44.57,23.3-54.19,86.6,48.62,110.91,48.62,110.91ZM423.28,196.33s96.73-13.17,77.99,65.84c0,0-97.24,8.61-77.99-65.84Z" fill="#eadabe"/><path d="M603.35,417.09l5.48-7.08,22.55-29.12s-36.51-.27-50.33-25.92c0,0-59.24,17.24-60.2,64.29-.96,47.05,58.61,71.48,58.61,71.48l39.17-29.85s-37.3-2.66-56.64-25.16c29.8-2.1,41.35-18.64,41.35-18.64ZM592.41,404.91c-7.28,16.55-21.74,24.08-33.03,27.49-9.08-12.66-12.63-30.87-2.94-57.04,0,0,8.03,18.28,35.97,29.54h0Z" fill="#eadabe"/><path d="M271.21,499.04l36.29-31.14s-37.39.67-58.7-20.69c29.49-4.88,39.48-22.94,39.48-22.94l19.77-31.93,4.86-7.84s-36.38,3.06-52.48-22.05c0,0-53.98,23.03-54.1,71.59-.14,56.7,64.88,65,64.88,65ZM237.79,385.66s9.66,18.06,38.51,27.08h0c-5.74,17.68-19.46,26.74-30.39,31.28-10.2-12.19-15.39-30.58-8.12-58.36Z" fill="#eadabe"/><path d="M505.24,475.86c8.93-10.19,12.34-21.67,9.88-32.21-3.29-14.12-17.09-26.55-42.19-31.93-37.69-13.57-22.05-37.51-22.05-37.51,20.46,45,58.28,22.08,58.28,22.08l12.87-28.71c-45.18,27.27-62.53-15.77-62.53-15.77-12.92,5.25-24.85,15.57-31.59,23.27-8.93,10.19-12.34,21.67-9.88,32.21,3.29,14.12,17.09,26.55,42.19,31.93,37.69,13.57,22.05,37.51,22.05,37.51-20.46-45-60.25-26.48-60.25-26.48l-12.87,28.71c45.18-27.27,60.59,24.84,60.59,24.84,12.92-5.25,28.76-20.24,35.5-27.94Z" fill="#eadabe"/><path d="M719.59,411.21l13.08-28.85c-44.62,26.1-60.82-18.61-60.82-18.61-12.71,4.86-24.55,14.94-31.28,22.55-8.9,10.07-12.44,21.67-10.22,32.56,2.96,14.57,16.23,27.84,40.66,34.34,36.58,15.38,20.89,39.24,20.89,39.24-19.2-46.85-58.4-29.48-58.4-29.48l-13.08,28.85c44.62-26.1,58.76,27.82,58.76,27.82,12.71-4.86,28.45-19.56,35.18-27.17,8.9-10.07,12.44-21.67,10.22-32.56-2.96-14.57-16.23-27.84-40.66-34.34-36.58-15.38-20.89-39.24-20.89-39.24,19.2,46.85,56.56,24.9,56.56,24.9Z" fill="#eadabe"/><path d="M720.01,229.47c-42.99-17.05-24.76-44.75-24.76-44.75,22.83,53.52,66.47,27.65,66.47,27.65l15.13-33.4c-52.12,30.79-71.42-20.34-71.42-20.34-14.87,5.81-28.67,17.6-36.5,26.47-10.36,11.73-14.43,25.13-11.75,37.61,3.58,16.7,19.22,31.72,47.9,38.78,42.99,17.05,24.76,44.75,24.76,44.75-22.83-53.52-68.66-32.88-68.66-32.88l-15.13,33.4c52.12-30.79,69.07,30.96,69.07,30.96,14.87-5.81,33.21-22.99,41.04-31.85,10.36-11.73,14.43-25.14,11.75-37.61-3.58-16.7-19.22-31.72-47.9-38.78Z" fill="#eadabe"/><path d="M369.17,338.39s-1.41-14.54,15.19-24.36c0,0-111.07,9.36-167.93,5.79,0,0-1.86,13.77-15.25,22.99,0,0,136.85-12.71,167.98-4.42Z" fill="#eadabe"/><path d="M657.46,319.59s-136.23,2.93-175.81-3.95c0,0,8.8,14.58-8.08,23.9q112.76-4.21,169.54,1.02s.7-12.14,14.35-20.97Z" fill="#eadabe"/><path d="M269.05,560.59c-34.79,22.2-70.76,45.15-113.72,45.15-10.15,0-18.66-2.51-24.61-7.26-5.23-4.17-8.15-9.97-8.24-16.34,2.37,5.91,8.16,10.1,14.92,10.1,8.86,0,16.07-7.21,16.07-16.07,0-2.22-.45-4.33-1.27-6.26-2.35-5.79-8.02-9.88-14.64-9.88-12.01,0-21.78,9.77-21.78,21.78,0,8.59,3.83,16.37,10.77,21.91,7.15,5.71,17.11,8.72,28.79,8.72,41.32,0,75.78-19.88,108.74-40.74-1.44,7.11,3.55,21.52,21.15,14.8,3.72-32.29,47.45-60.04,83.02-60.04,13.29,0,29.68,1.08,42.7,4.91l.38-.72c-13.03-6.91-28.73-10.88-43.08-10.88-35.2,0-66.29,19.83-99.2,40.83Z" fill="#eadabe"/><path d="M325.84,510.78v-.32c-69.93,13.17-122.6,37.35-110.4,59.66,27.6-12.31,74.8-49.69,110.4-59.34Z" fill="#eadabe"/><path d="M657.33,529.69l-.1.18c.1-.18,22.07,14.8,27.37,41.26,9.52,7.06,24.7-18.08-27.27-41.44Z" fill="#eadabe"/><path d="M623.16,519.59c-47.43-23.25-105.72-25.91-132.4-10.19-12.56,7.64-11.41,11.26-11.41,11.26,31.89-29.13,104.03-11.26,139.54,7.05,28.6,14.74,39,34.08,37.83,48.84-1.59-3.69-4.53-6.8-8.5-8.53-8.31-3.62-17.98.18-21.6,8.49-3.96,9.09-.44,20.16,11.09,25.18,11.56,5.04,22.4-.35,27.37-11.76,12.04-27.62-13.03-56.18-41.92-70.34Z" fill="#eadabe"/><path d="M61.53,111.84h9.98c-.08,1.04-.12,2.09-.12,3.14,0,16.39,13.33,29.72,29.72,29.72,12.01,0,21.77-9.77,21.77-21.77,0-4.29-1.68-8.19-4.42-11.09h36.11c-1.14,1.81-1.77,4.02-1.77,6.52,0,10.88,11.62,18.47,28.26,18.47,15.51,0,29.7-7.49,43.22-17.61,1.32,7.09,10.7,21.16,33.52,9.8-.61-6.01-.31-11.76.71-17.19h31.83c-.32,1.75-.49,3.59-.49,5.5,0,14.24,8.81,27.65,25.32,26.51,4.19,2.53,9.09,3.99,14.33,3.99,21.08,0,38.22-17.15,38.22-38.22,0-29.22-23.77-52.99-52.99-52.99-26.72,0-48.94,19.78-70.44,38.9-4.24,3.77-8.44,7.51-12.62,11.06h-9.91c-22.99-1.18-41.74-9.65-59.91-17.87-16.72-7.56-32.52-14.7-49.49-14.7-19.71,0-36.22,14-40.1,32.57h-10.73c-5.03,0-10.62-1.36-15.02-4.34-7.78,2.97-30.16,6.97-30.16,6.97,0,0,22.38,3.99,30.16,6.96,4.4-2.99,9.99-4.34,15.02-4.34ZM314.73,61.88c26.33,0,47.75,21.42,47.75,47.75,0,18.18-14.79,32.98-32.98,32.98-12.43,0-22.54-10.11-22.54-22.54,0-8.36,6.8-15.16,15.16-15.16.23,0,.46.01.69.03-4.39,1.46-7.56,5.6-7.56,10.47,0,6.08,4.95,11.03,11.03,11.03s11.03-4.95,11.03-11.03c0-.09,0-.18,0-.27,0-.09,0-.18,0-.27,0-8.17-6.48-14.85-14.57-15.17.5-4.29-2.57-7.68-9.27-7.68-9.93,0-18.04,5.66-21.63,14.6h-32.1c7.72-26.98,33.69-44.72,54.98-44.72ZM225.16,111.97c-14.17,11.28-28.41,19.63-44.1,19.63-5.44,0-10.23-.85-14.07-2.48,5.18-.9,9.14-5.43,9.14-10.87,0-2.39-.77-4.6-2.06-6.41h47.62c1.15.06,2.31.1,3.47.12ZM112.35,79.27c4.85,0,9.65.65,14.44,1.76-3.56,2.02-6.18,7.47-.81,11.52,14.65-2.13,38.07,4.42,54.72,9.95,3.62,1.39,7.35,2.7,11.18,3.88.02,0,.04.02.06.02h0c.21.06.42.13.62.19h-114.95c3.78-15.66,17.91-27.33,34.72-27.33ZM76.78,111.84h19.38c-1.22,1.84-1.93,4.05-1.93,6.42,0,6.43,5.23,11.66,11.66,11.66,5.69,0,10.44-4.1,11.46-9.5.19.81.29,1.65.29,2.51,0,9.11-7.41,16.53-16.53,16.53-13.5,0-24.48-10.98-24.48-24.48,0-1.06.05-2.11.14-3.14Z" fill="#eadabe"/><path d="M386.64,103.81c4.33-17.01,10.49-32.7,26.57-48.26-1.83-1.59-3.66-3.53-5.45-5.73-1.85,1.33-4.16,2.05-6.65,1.86-5-.37-9.03-4.46-9.33-9.46-.24-4.06,1.91-7.63,5.17-9.46-5.59-11-9.63-29.84-10.23-32.77h-.16c-.61,2.93-4.64,21.76-10.23,32.77,3.26,1.82,5.42,5.4,5.17,9.46-.3,5-4.33,9.09-9.33,9.46-2.49.18-4.8-.54-6.65-1.86-1.79,2.2-3.62,4.14-5.45,5.73,16.08,15.56,22.24,31.25,26.57,48.26Z" fill="#eadabe"/><path d="M396.6,127.93c0-5.5-4.46-9.96-9.96-9.96s-9.96,4.46-9.96,9.96,4.46,9.96,9.96,9.96,9.96-4.46,9.96-9.96Z" fill="#eadabe"/><path d="M443.78,147.85c5.24,0,10.14-1.46,14.33-3.99,16.51,1.14,25.32-12.28,25.32-26.51,0-1.91-.17-3.75-.49-5.5h31.83c1.02,5.43,1.32,11.17.71,17.19,22.82,11.36,32.2-2.71,33.52-9.8,13.52,10.12,27.71,17.61,43.22,17.61,16.64,0,28.26-7.6,28.26-18.47,0-2.5-.63-4.71-1.77-6.52h36.11c-2.74,2.9-4.42,6.8-4.42,11.09,0,12.01,9.77,21.77,21.77,21.77,16.39,0,29.72-13.33,29.72-29.72,0-1.06-.04-2.11-.12-3.14h9.98c5.03,0,10.62,1.35,15.02,4.34,7.78-2.97,30.16-6.96,30.16-6.96,0,0-22.38-3.99-30.16-6.97-4.4,2.99-9.99,4.34-15.02,4.34h-10.73c-3.88-18.58-20.38-32.57-40.1-32.57-16.97,0-32.76,7.14-49.49,14.7-18.17,8.22-36.93,16.69-59.91,17.87h-9.91c-4.18-3.55-8.38-7.28-12.62-11.06-21.49-19.13-43.72-38.9-70.44-38.9-29.22,0-52.99,23.77-52.99,52.99,0,21.08,17.15,38.22,38.22,38.22ZM696.64,114.99c0,13.5-10.98,24.48-24.48,24.48-9.11,0-16.53-7.42-16.53-16.53,0-.86.1-1.7.29-2.51,1.02,5.4,5.77,9.5,11.46,9.5,6.43,0,11.66-5.23,11.66-11.66,0-2.37-.71-4.58-1.93-6.42h19.38c.09,1.04.14,2.08.14,3.14ZM581.31,106.41h0s.04-.01.06-.02c3.83-1.18,7.56-2.49,11.18-3.88,16.65-5.53,40.08-12.08,54.72-9.95,5.38-4.05,2.75-9.51-.81-11.52,4.79-1.11,9.59-1.76,14.44-1.76,16.81,0,30.94,11.67,34.72,27.33h-114.95c.21-.06.42-.13.62-.19ZM551.59,111.84h47.62c-1.3,1.81-2.06,4.02-2.06,6.41,0,5.44,3.96,9.97,9.14,10.87-3.84,1.63-8.63,2.48-14.07,2.48-15.69,0-29.93-8.35-44.1-19.63,1.17-.02,2.32-.06,3.47-.12ZM458.55,61.88c21.29,0,47.26,17.73,54.98,44.72h-32.1c-3.59-8.94-11.7-14.6-21.63-14.6-6.7,0-9.77,3.39-9.27,7.68-8.09.33-14.56,7.01-14.56,15.17,0,.09,0,.18,0,.27,0,.09,0,.18,0,.27,0,6.08,4.95,11.03,11.03,11.03s11.03-4.95,11.03-11.03c0-4.87-3.17-9.01-7.56-10.47.23-.02.46-.03.69-.03,8.36,0,15.16,6.8,15.16,15.16,0,12.43-10.11,22.54-22.54,22.54-18.18,0-32.98-14.79-32.98-32.98,0-26.33,21.42-47.75,47.75-47.75Z" fill="#eadabe"/></svg>