<?xml version="1.0" encoding="UTF-8"?><svg id="e" xmlns="http://www.w3.org/2000/svg" xmlns:xlink="http://www.w3.org/1999/xlink" viewBox="0 0 760.76 743.68"><defs><clipPath id="f"><path d="M704.37,141.86c-1.55,1.17-3.21,2.24-4.87,3.25-7.24,4.44-14.97,8.34-23.33,10.01-8.36,1.67-17.44.94-24.74-3.37.11,10.19.52,28.83.89,33.05,1.18,13.46,1.71,26.97,2.94,40.43,2.54,27.62,6.19,55.15,11.18,82.45,9.96,54.41,25.33,107.97,47.76,158.69,7.07,15.98,14.86,31.74,19.59,48.54,9.3,33.02,6.28,68.17.67,102.01-1.13,6.81-2.44,13.82-6.29,19.59-11.17,16.75-36.08,15.04-56.25,12.5-130.2-16.38-261.14,14.61-391.74,28.16-30.05,3.12-60.62,5.29-90.29-.25-47.18-8.81-96.43-43.97-100.16-94.82-1.6-21.76,16.38-60.53,38.51-61.93,31.76-121.8,9.06-241.09-39.07-356.29-6.44-15.41-13.5-30.65-17.75-46.77C60.46,75.55,65.8,4.75,122.74.15c8.18-.66,16.34.97,24.38,2.59,51.22,10.32,102.71,20.68,155.03,23.62,51.48,2.9,102.89,7.06,154.43,8.67,26.04.81,52.11.98,78.15,0,25.22-.95,50.47-5.55,75.57-8.74,20.2-2.57,40.82-5.26,59.1-14.11,4.67-2.26,9.41-4.98,14.61-4.97,6.19.01,11.65,3.89,16.13,8.1,30.65,28.79,29.56,76.45,14.18,112.36-1.48,3.45-2.99,6.95-5.37,9.87-1.33,1.63-2.9,3.04-4.59,4.32Z" fill="none"/></clipPath></defs><path d="M-317.38,760.49c.06.07.12.14.18.22.06.07.12.14.18.22.06.07.12.14.18.22.06.07.12.14.18.22.06.07.12.14.18.21.06.07.12.14.18.22.06.07.12.14.18.22.06.07.12.14.18.22.06.07.12.14.18.22.06.07.12.14.18.22.06.07.12.14.18.22.06.07.12.14.18.22.06.07.12.14.18.22.06.07.12.14.18.21.06.07.12.14.18.22.06.07.12.14.18.22.06.07.12.14.18.22.06.07.12.14.18.22.06.07.12.14.18.22.06.07.12.14.18.22.06.07.12.14.18.22.06.07.12.14.18.22.06.07.12.14.18.22.06.07.12.14.18.22.06.07.12.14.18.22.06.07.12.14.18.21.06.07.12.14.18.22.06.07.12.14.18.22.06.07.12.14.18.22.06.07.12.14.18.22,7.02,8.52,17.64,13.97,29.52,13.97,5.24,0,10.14-1.46,14.33-3.99,16.51,1.14,25.32-12.28,25.32-26.51,0-1.91-.17-3.75-.49-5.5h27c.25,3.4.21,6.9-.15,10.5.07.03.13.06.19.09,0,.04,0,.08-.01.12.07.03.13.06.19.09,0,.04,0,.08-.01.12.07.03.13.06.19.09,0,.04,0,.08-.01.12.07.03.13.06.19.09,0,.04,0,.08-.01.12.07.03.13.06.19.09,0,.04,0,.08-.01.12.07.03.13.06.19.09,0,.04,0,.08-.01.12.07.03.13.06.19.09,0,.04,0,.08-.01.12.07.03.13.06.19.09,0,.04,0,.08-.01.12.07.03.13.06.19.09,0,.04,0,.08-.01.12.07.03.13.06.19.09,0,.04,0,.08-.01.12.07.03.13.06.19.09,0,.04,0,.08-.01.12.07.03.13.06.19.09,0,.04,0,.08-.01.12.07.03.13.06.19.09,0,.04,0,.08-.01.12.07.03.13.06.19.09,0,.04,0,.08-.01.12.07.03.13.06.19.09,0,.04,0,.08-.01.12.07.03.13.06.19.09,0,.04,0,.08-.01.12.07.03.13.06.19.09,0,.04,0,.08-.01.12.07.03.13.06.19.09,0,.04,0,.08-.01.12.07.03.13.06.19.09,0,.04,0,.08-.01.12.07.03.13.06.19.09,0,.04,0,.08-.01.12.07.03.13.06.19.09,0,.04,0,.08-.01.12.07.03.13.06.19.09,0,.04,0,.08-.01.12.07.03.13.06.19.09,0,.04,0,.08-.01.12.07.03.13.06.19.09,0,.04,0,.08-.01.12.07.03.13.06.19.09,0,.04,0,.08-.01.12.07.03.13.06.19.09,0,.04,0,.08-.01.12.07.03.13.06.19.09,0,.04,0,.08-.01.12.07.03.13.06.19.09,0,.04,0,.08-.01.12.07.03.13.06.19.09,0,.04,0,.08-.01.12.07.03.13.06.19.09,0,.04,0,.08-.01.12.07.03.13.06.19.09,0,.04,0,.08-.01.12,22.82,11.36,32.2-2.71,33.52-9.8,13.52,10.12,27.71,17.61,43.22,17.61,16.64,0,28.26-7.6,28.26-18.47,0-2.5-.63-4.71-1.77-6.52h26.61c-.4,1.4-.62,2.87-.62,4.4,0,5.33,1.93,10.22,5.13,14.01.06.07.12.14.18.22.06.07.12.14.18.22.06.07.12.14.18.21.06.07.12.14.18.22.06.07.12.14.18.21.06.07.12.14.18.22.06.07.12.14.18.22.06.07.12.14.18.22.06.07.12.14.18.22.06.07.12.14.18.22.06.07.12.14.18.22.06.07.12.14.18.22.06.07.12.14.18.22.06.07.12.14.18.22.06.07.12.14.18.22.06.07.12.14.18.22.06.07.12.14.18.22.06.07.12.14.18.22.06.07.12.14.18.22.06.07.12.14.18.22.06.07.12.14.18.22.06.07.12.14.18.22.06.07.12.14.18.22.06.07.12.14.18.22.06.07.12.14.18.22.06.07.12.14.18.21.06.07.12.14.18.22.06.07.12.14.18.22.06.07.12.14.18.22.06.07.12.14.18.22,4,4.87,10.06,7.98,16.83,7.98,16.39,0,29.72-13.33,29.72-29.72,0-1.06-.04-2.11-.12-3.14h9.98c5.03,0,10.62,1.35,15.02,4.34,7.78-2.97,30.16-6.96,30.16-6.96,0,0-.25-.04-.69-.12.32-.06.5-.09.5-.09,0,0-.25-.04-.69-.12.32-.06.5-.09.5-.09,0,0-.25-.04-.69-.12.32-.06.5-.09.5-.09,0,0-.25-.04-.69-.12.32-.06.5-.09.5-.09,0,0-.25-.04-.69-.12.32-.06.5-.09.5-.09,0,0-.25-.04-.69-.12.32-.06.5-.09.5-.09,0,0-.25-.04-.69-.12.32-.06.5-.09.5-.09,0,0-.25-.04-.69-.12.32-.06.5-.09.5-.09,0,0-.25-.04-.69-.12.32-.06.5-.09.5-.09,0,0-.25-.04-.69-.12.32-.06.5-.09.5-.09,0,0-.25-.04-.69-.12.32-.06.5-.09.5-.09,0,0-.25-.04-.69-.12.32-.06.5-.09.5-.09,0,0-.25-.04-.69-.12.32-.06.5-.09.5-.09,0,0-.25-.04-.69-.12.32-.06.5-.09.5-.09,0,0-.25-.04-.69-.12.32-.06.5-.09.5-.09,0,0-.25-.04-.69-.12.32-.06.5-.09.5-.09,0,0-.25-.04-.69-.12.32-.06.5-.09.5-.09,0,0-.25-.04-.69-.12.32-.06.5-.09.5-.09,0,0-.25-.04-.69-.12.32-.06.5-.09.5-.09,0,0-.25-.04-.69-.12.32-.06.5-.09.5-.09,0,0-.25-.04-.69-.12.32-.06.5-.09.5-.09,0,0-.25-.04-.69-.12.32-.06.5-.09.5-.09,0,0-.25-.04-.69-.12.32-.06.5-.09.5-.09,0,0-.25-.04-.69-.12.32-.06.5-.09.5-.09,0,0-.25-.04-.69-.12.32-.06.5-.09.5-.09,0,0-.25-.04-.69-.12.32-.06.5-.09.5-.09,0,0-.25-.04-.69-.12.32-.06.5-.09.5-.09,0,0-.25-.04-.69-.12.32-.06.5-.09.5-.09,0,0-.25-.04-.69-.12.32-.06.5-.09.5-.09,0,0-.25-.04-.69-.12.32-.06.5-.09.5-.09,0,0-.25-.04-.69-.12.32-.06.5-.09.5-.09,0,0-22.38-3.99-30.16-6.97-4.4,2.99-9.99,4.34-15.02,4.34h-7.05c-1.73-4.36-4.19-8.35-7.23-11.83-.06-.07-.12-.15-.18-.22-.06-.07-.12-.15-.18-.22-.06-.07-.12-.14-.18-.21-.06-.07-.12-.15-.18-.22-.06-.07-.12-.15-.18-.22-.06-.07-.12-.15-.18-.22-.06-.07-.12-.14-.18-.22-.06-.07-.12-.14-.18-.22-.06-.07-.12-.14-.18-.22-.06-.07-.12-.14-.18-.22-.06-.07-.12-.15-.19-.22-.06-.07-.12-.14-.18-.21-.06-.07-.12-.15-.18-.22-.06-.07-.12-.15-.18-.22-.06-.07-.12-.14-.18-.22-.06-.07-.12-.15-.18-.22-.06-.07-.12-.14-.18-.21-.06-.07-.12-.15-.18-.22-.06-.07-.12-.14-.18-.22-.06-.07-.12-.14-.18-.22-.06-.07-.12-.15-.18-.22-.06-.07-.12-.14-.18-.21-.06-.07-.12-.15-.18-.22-.06-.07-.12-.14-.18-.22-.06-.07-.12-.15-.18-.22-.06-.07-.12-.15-.18-.22-.06-.07-.12-.14-.18-.22-.06-.07-.12-.14-.18-.22-.06-.07-.12-.14-.18-.22-.06-.07-.12-.15-.18-.22-7.52-8.73-18.64-14.27-31.04-14.27-16.97,0-32.76,7.14-49.49,14.7-18.17,8.22-36.93,16.69-59.91,17.87h-9.91c-4.18-3.55-8.38-7.28-12.62-11.06-21.49-19.13-43.72-38.9-70.44-38.9-29.22,0-52.99,23.77-52.99,52.99,0,9.3,3.34,17.84,8.89,24.47ZM-315.33,742.71c0-26.33,21.42-47.75,47.75-47.75,13.21,0,28.22,6.84,39.56,18.47,4.26,5.75,7.65,12.31,9.72,19.56h-30.45c-.06-.07-.12-.14-.18-.21-.06-.07-.12-.14-.18-.22-.06-.07-.12-.14-.18-.22-.06-.07-.12-.14-.18-.22-.06-.07-.12-.14-.18-.22-.06-.07-.12-.14-.18-.22-.06-.07-.12-.14-.18-.22-.06-.07-.12-.14-.18-.22-.06-.07-.12-.14-.18-.22-.06-.07-.12-.14-.18-.22-.06-.07-.12-.14-.18-.22-.06-.07-.12-.14-.18-.22-.06-.07-.12-.14-.18-.22-.06-.07-.12-.14-.18-.22-.06-.07-.12-.14-.18-.22-.06-.07-.12-.14-.18-.22-.06-.07-.12-.14-.18-.22-.06-.07-.12-.14-.18-.22-.06-.07-.12-.14-.18-.22-.06-.07-.12-.14-.18-.22-.06-.07-.12-.14-.18-.22-.06-.07-.12-.14-.18-.22-.06-.07-.12-.14-.18-.22-.06-.07-.12-.14-.18-.22-.06-.07-.12-.14-.18-.21-.06-.07-.12-.14-.18-.22-.06-.07-.12-.14-.18-.22-.06-.07-.12-.14-.18-.22-4.26-5.37-10.69-8.56-18.14-8.56-6.7,0-9.77,3.39-9.27,7.68-8.09.33-14.56,7.01-14.56,15.17,0,.09,0,.18,0,.27,0,.09,0,.18,0,.27,0,2.73,1,5.22,2.65,7.15.06.07.12.14.18.22.06.07.12.14.18.21.06.07.12.14.18.22.06.07.12.14.18.22.06.07.12.14.18.22.06.07.12.14.18.22.06.07.12.14.18.22.06.07.12.14.18.22.06.07.12.14.18.22.06.07.12.14.18.22.06.07.12.14.18.22.06.07.12.14.18.22.06.07.12.14.18.22.06.07.12.14.18.22.06.07.12.14.18.22.06.07.12.14.18.22.06.07.12.14.18.22.06.07.12.14.18.22.06.07.12.14.18.22.06.07.12.14.18.22.06.07.12.14.18.22.06.07.12.14.18.22.06.07.12.14.18.22.06.07.12.14.18.22.06.07.12.14.18.22.06.07.12.14.18.22.06.07.12.14.18.22.06.07.12.14.18.22.06.07.12.14.18.22.06.07.12.14.18.22,2.02,2.5,5.11,4.1,8.57,4.1,6.08,0,11.03-4.95,11.03-11.03,0-2.78-1.04-5.32-2.75-7.27-.06-.07-.12-.15-.18-.22-.06-.07-.12-.15-.18-.22-.06-.07-.12-.14-.18-.22-.06-.07-.12-.15-.18-.22-.06-.07-.12-.14-.18-.22-.06-.07-.12-.15-.18-.22-.06-.07-.12-.15-.18-.22-.06-.07-.12-.15-.18-.22-.06-.07-.12-.15-.18-.22-.06-.07-.12-.14-.18-.22-.06-.07-.12-.15-.18-.22-.06-.07-.12-.14-.18-.22-.06-.07-.12-.14-.18-.22-.06-.07-.12-.15-.18-.22-.04-.04-.07-.09-.11-.13,2.48.24,4.77,1.08,6.76,2.36.81,1.85,1.26,3.89,1.26,6.04,0,12.43-10.11,22.54-22.54,22.54-8.46,0-16.19-3.21-22.04-8.47-3.32-5.14-5.25-11.26-5.25-17.82ZM-36.19,732.99h-89.23c15.54-4.75,34.18-9.16,46.57-7.35,4.15-3.13,3.53-7.08,1.4-9.65-.06-.08-.12-.14-.18-.22-.06-.07-.12-.14-.18-.22-.06-.08-.12-.14-.18-.22-.06-.07-.12-.14-.18-.22-.06-.07-.12-.14-.18-.22-.06-.08-.12-.14-.18-.22-.06-.08-.12-.14-.18-.22-.06-.08-.12-.14-.18-.22-.06-.08-.12-.14-.18-.22-.01-.01-.02-.03-.04-.04,4.62-1.04,9.25-1.65,13.92-1.65,9.31,0,17.79,3.58,24.15,9.44,2.23,3.38,3.9,7.15,4.87,11.2ZM-174.54,744.92h39.88c.07,2.66,1.07,5.08,2.71,6.96.06.07.12.15.18.22.06.07.12.14.18.22.06.07.12.14.18.22.06.07.12.14.18.22.06.07.12.14.18.22.06.07.12.15.18.22.06.07.12.14.18.22.06.07.12.15.18.22.06.07.12.14.18.22.06.07.12.14.18.22.06.07.12.15.18.22.06.07.12.14.18.22.06.07.12.15.18.22.06.07.12.14.18.22.06.07.12.14.18.22.06.07.12.14.18.22.06.07.12.14.18.22.06.07.12.15.18.22.06.07.12.14.18.21.06.07.12.15.18.22.06.07.12.14.18.22,0,0,0,0,0,0-3.34,1.02-7.22,1.56-11.52,1.56-12.43,0-23.96-5.26-35.26-13.05.11,0,.22,0,.32-.01ZM-70.47,755.54c.06.07.12.14.18.21.06.07.12.15.18.22.06.07.12.14.18.22.06.07.12.14.18.22.06.07.12.15.18.22.06.07.12.14.18.22.06.07.12.14.18.22.06.07.12.14.18.22.06.07.12.14.18.22.06.07.12.14.18.22.06.07.12.14.18.22.06.07.12.15.18.22.06.07.12.14.18.22.06.07.12.14.18.22.06.07.12.14.18.22,2.14,2.58,5.37,4.23,8.97,4.23,6.43,0,11.66-5.23,11.66-11.66,0-2.37-.71-4.58-1.93-6.42h13.57c-1.72,11.82-11.92,20.93-24.22,20.93-3.43,0-6.62-1.05-9.27-2.85-1-2.13-1.57-4.49-1.57-6.99,0-.16.02-.32.03-.47Z" fill="#5b3834"/><path d="M704.37,141.86c-1.55,1.17-3.21,2.24-4.87,3.25-7.24,4.44-14.97,8.34-23.33,10.01-8.36,1.67-17.44.94-24.74-3.37.11,10.19.52,28.83.89,33.05,1.18,13.46,1.71,26.97,2.94,40.43,2.54,27.62,6.19,55.15,11.18,82.45,9.96,54.41,25.33,107.97,47.76,158.69,7.07,15.98,14.86,31.74,19.59,48.54,9.3,33.02,6.28,68.17.67,102.01-1.13,6.81-2.44,13.82-6.29,19.59-11.17,16.75-36.08,15.04-56.25,12.5-130.2-16.38-261.14,14.61-391.74,28.16-30.05,3.12-60.62,5.29-90.29-.25-47.18-8.81-96.43-43.97-100.16-94.82-1.6-21.76,16.38-60.53,38.51-61.93,31.76-121.8,9.06-241.09-39.07-356.29-6.44-15.41-13.5-30.65-17.75-46.77C60.46,75.55,65.8,4.75,122.74.15c8.18-.66,16.34.97,24.38,2.59,51.22,10.32,102.71,20.68,155.03,23.62,51.48,2.9,102.89,7.06,154.43,8.67,26.04.81,52.11.98,78.15,0,25.22-.95,50.47-5.55,75.57-8.74,20.2-2.57,40.82-5.26,59.1-14.11,4.67-2.26,9.41-4.98,14.61-4.97,6.19.01,11.65,3.89,16.13,8.1,30.65,28.79,29.56,76.45,14.18,112.36-1.48,3.45-2.99,6.95-5.37,9.87-1.33,1.63-2.9,3.04-4.59,4.32Z" fill="#b6957d"/><g clip-path="url(#f)"><path d="M91.94,562.16c-1.7,12.11-3.23,25.21,2.81,35.87,5.04,8.89,14.47,14.43,23.85,18.74,44.16,20.3,94.86,22.11,143.43,17.64,48.57-4.47,96.52-14.84,145.22-17.59,24.14-1.36,48.46-.85,72.32-4.72,12.82-2.08,25.39-5.4,38.14-7.84,32.57-6.23,65.93-6.64,99.06-8.22,17.12-.82,36.9-3.46,45.87-17.85,8.52-13.66,3.9-33.5,15.27-44.97-4.98,22.72-7.33,56.04,1.08,78.03,5.79,15.14,21.07,28.05,37.36,25.74,17.61-2.49,28.11-20.26,35.13-36.36,6.84,22,.08,46.57-13.46,65.38-13.53,18.81-33.12,32.58-53.51,43.91-36.95,20.53-78.62,34.35-121.02,33.73-32.13-.46-63.45-9.1-94.87-15.66-92.7-19.34-188.65-20.76-283.02-11.68-34.33,3.3-69.08,7.97-103.09,2.44-14.48-2.36-29.15-6.83-40.02-16.52-12.06-10.75-17.97-26.5-22.86-41.78-7.32-22.88-13.32-46.18-17.96-69.74-1.44-7.33-2.73-15.03-.42-22.14,2.15-6.63,7.18-11.94,12.34-16.71,12.8-11.81,27.39-21.74,43.13-29.36l35.21,39.64Z" fill="#9f7761"/><path d="M681.04,521.93c2.21-3.13,4.09-6.18,7.86-7.58,7.08-2.63,14.9-3.27,22.32-1.85,1.39.27,2.79.62,4,1.34,1.94,1.17,3.18,3.17,4.34,5.1,4.94,8.19,7.22,18.38,8.39,27.82,1.56,12.61.46,25.41-1.6,37.95-.78,4.74-1.72,9.54-3.95,13.81-2.73,5.23-7.45,9.48-13.09,11.42-5.64,1.94-12.15,1.46-17.27-1.54-9.07-5.31-12.12-16.86-12.24-27.25-.08-6.76.77-13.66,3.63-19.82,2.86-6.16,7.93-11.52,14.43-13.75-6.91-1.19-13.98-1.48-20.97-.85-.93.08-1.92.21-2.65.78-.59.47-.92,1.18-1.22,1.87-5.8,13.42-3.42,27.57-1.03,41.55,1.95,11.39,5.77,23.85,15.97,29.54,8.37,4.67,19.34,3.29,27.37-1.96,8.03-5.25,13.35-13.81,16.34-22.82,6-18.11,3.33-37.79-.37-56.47-1.43-7.22-3.03-14.49-6.3-21.09-3.27-6.61-8.4-12.57-15.24-15.53-2.27-.98-4.73-1.62-7.21-1.51-3.96.18-7.57,2.24-10.73,4.6-5.39,4.03-10.22,9.6-10.78,16.23Z" fill="#9f7761"/><path d="M64.57,40.95c12.16-5.63,27.84-3.12,41.47-.51,55.59,10.64,112.24,19.41,170.12,22.67,44.24,2.49,88.96,1.74,133.51-.67,31.23-1.69,62.41-4.18,93.58-6.68-18.98,10.22-43.98,11.74-67.38,13.48-37.24,2.76-75.43,7.35-108.11,20.96-5.55,2.31-11.04,4.91-17.25,5.97-5.6.95-11.37.58-17.07.62-11.87.07-23.67,1.91-35.37,3.75-26.13,4.1-52.34,8.22-77.87,14.2-21.41,5.02-42.84,10.28-52.97,25.89-6.64,10.24-7.43,21.76-5.63,32.69,1.79,10.93,6.02,21.51,9,32.28,3.49,12.6,5.29,25.48,5.01,38.43-.39,18.29-4.9,36.53-9.39,54.68-1.33,5.39-3.83,11.79-11.24,13.61,2.27-27.81,4.46-56.19-5.99-82.67-6.57-16.64-17.96-32.02-25.57-48.41-4.59-9.88-7.78-20.09-10.97-30.27-6.6-21.1-13.21-42.19-19.81-63.29-2.68-8.57-8.36-17.9-4.14-26.33,3.69-7.38,5.86-15.65,16.07-20.37Z" fill="#9f7761"/><path d="M675.47,158.63c3.23.87,2.91,1.12,2.61,4.04-.24,2.32.36,5-1.48,6.86-1.88,1.9-5.07,1.46-7.63.63-5.02-1.63-9.86-4.33-12.96-8.54-1.81-2.45-2.95-5.3-3.96-8.16-3.12-8.82-4.62-17.51-5.69-26.75-1.85-16.07-3.04-32.29-1.71-48.45.78-9.42,1.24-17.53,2.89-26.84,1.07-6.04,3.34-13.4,6.16-18.88,2.16-4.2,4.16-8.44,7.25-12.03,3.98-4.62,9.17-8.67,14.15-12.24s11-6.04,17.15-5.77c10.54.45,19.07,8.64,24.72,17.4,10.24,15.9,14.42,34.89,16.11,53.66,1.14,12.62,1.23,25.47-1.55,37.85-2.78,12.38-8.6,24.34-17.96,33.06-1.93,1.8-4,3.45-6.28,4.79-8.98,5.29-20.01,7.53-30.45,7.01-3.61-.18-7.53-2.76-10.43-4.89-2.94-2.16-6.76-9.04-7.88-12.48-2.65-8.17-3.65-12.26-4.54-20.79-1.66-15.85,2.02-33.12,7.91-47.98,2.03-5.13,4.54-10.17,8.25-14.3,3.7-4.13,8.73-7.31,14.28-7.99,1.8-.22,3.83-.09,5.12,1.16-9.8,2.2-15.91,11.79-19.46,21.04-3.55,9.25-5.12,18.14-4.82,28.02.23,7.55.74,15.1,1.51,22.61.59,5.68,1.47,11.68,5.19,16.05,3.88,4.57,10.23,6.49,16.29,6.59,5.76.09,11.75-1.39,16.03-5.19,3.26-2.9,5.28-6.91,6.95-10.91,11.04-26.57,9.35-57.94-4.49-83.15-2.57-4.67-5.62-9.24-9.97-12.38-5.16-3.72-11.74-5.11-18.14-5.14-3.8-.02-7.72.46-11,2.34-3.02,1.74-5.24,4.53-7.18,7.4-5.05,7.48-8.64,15.91-10.49,24.7-1.06,5.03-1.56,10.15-2.02,15.26-1.18,12.99-.99,26.63.85,39.56,1.47,10.34,3.49,20.95,13.21,26.69,3.7,2.18,6.58,5.46,9.3,8.76,2.45,2.97,4.88,6.1,5.92,9.78s.41,8.08-2.53,10.59" fill="#9f7761"/><path d="M70.88,558.98c-.62-1.57-2.53,1.62-.87,2.06,1.66.44,3-1.29,3.87-2.75,10.04-16.64,29.14-27.63,48.78-28.04,8.65-.18,17.21,1.53,25.75,2.95,79.96,13.28,161.79.58,241.89-12.11,14.99-2.37,29.99-4.75,44.83-7.93,17.8-3.81,35.33-8.76,53.09-12.7,66-14.63,135.2-15.04,201.32-1.17-23.26-15.92-53.29-18.12-81.64-17.88-84.44.7-167.68,18.18-250.9,32.43-24.9,4.27-49.9,8.25-75.12,9.82-46.05,2.86-92.32-1.41-138.18-3.13-18.97-1.28-40.01-1.94-54.71,9.97l-18.12,28.49Z" fill="#9f7761"/></g><path d="M88.32,354.04c-5.09,0-10.58-2.99-16.3-8.87-17.94-18.44-34.84-62.17-34.13-88.3.4-14.65,9.18-32.82,26.11-54.02,7.16-8.97,14.34-16.61,19.19-21.52l-45.53,15.81.23-2.85c.87-10.59-9.85-24.99-9.96-25.13l-2.21-2.94,98.16-.97-4.09,3.35c-10.62,8.71-19.57,21.58-26.6,38.27-9.86,23.38-12.29,48.49-7.03,72.62,5.41,24.8,16.37,37.9,32.57,38.93,1.43.09,2.83.14,4.17.14h0c15.1,0,24.43-5.65,27.73-16.79,1.73-5.82,1.05-12.29-1.91-18.22-4.65-9.31-11.54-29.8-5.38-62.46,7.23-38.35-1.81-53.7-1.9-53.85l-1.2-1.96,2.16-.78,33.47-11.91.72,1.52c5.2,10.93,7.15,22.49,5.82,34.36-4.39,39.07-3.63,62.61-3.1,70.92.25,3.91,1.49,7.67,2.8,11.65,2.31,6.99,4.69,14.22,1.25,22.19-1.67,3.86-4.52,7.1-7.35,10.04-10.91,11.29-24.21,21.54-40.67,31.33-12.78,7.6-28.06,15.83-44.54,19.18-.81.17-1.65.25-2.5.25h0Z" fill="#eadabe"/><path d="M174.92,154.92c4.56,9.58,7.07,20.71,5.65,33.35-4.4,39.17-3.65,62.78-3.1,71.24.72,11.27,9.21,21.39,4.2,32.97-1.55,3.58-4.22,6.62-6.98,9.48-11.74,12.16-25.53,22.25-40.28,31.03-13.45,8-28.24,15.76-43.96,18.96-.7.14-1.41.21-2.12.21-21.38,0-49.48-62.05-48.57-95.26.94-34.32,50.7-80.08,50.7-80.08l-50.7,17.6c.94-11.44-10.33-26.4-10.33-26.4l89.19-.88c-12.69,10.41-21.36,25.28-27.14,38.99-9.87,23.41-12.51,49.08-7.13,73.75,4.22,19.37,13.61,39.07,34.27,40.39,1.49.1,2.92.14,4.29.14,19.59,0,26.93-9.4,29.52-18.12,1.93-6.52,1.03-13.45-2.03-19.58-4.35-8.7-11.33-28.86-5.22-61.28,7.5-39.76-2.15-55.17-2.15-55.17l31.89-11.35M176.83,150.29l-3.17,1.13-31.89,11.35-4.37,1.55,2.46,3.93s2.18,3.72,3.48,11.98c1.2,7.68,1.86,20.94-1.83,40.53-6.26,33.19.79,54.12,5.54,63.63,2.75,5.5,3.38,11.49,1.79,16.85-3.04,10.26-11.77,15.46-25.95,15.46-1.3,0-2.67-.05-4.06-.13-15.27-.98-25.66-13.58-30.87-37.47-5.18-23.76-2.79-48.48,6.92-71.51,6.92-16.41,15.69-29.04,26.07-37.56l8.18-6.71-10.57.1-89.19.88-7.37.07,4.44,5.89c2.89,3.85,10.26,15.66,9.59,23.86l-.47,5.7,5.4-1.87,35.43-12.3c-15.1,16.11-39.69,46.09-40.37,71.16-.73,26.52,16.44,70.93,34.66,89.65,6.09,6.26,12.03,9.44,17.64,9.44.97,0,1.93-.1,2.87-.29,16.75-3.41,32.21-11.73,45.12-19.41,16.6-9.88,30.03-20.23,41.05-31.64,2.96-3.06,5.94-6.46,7.72-10.59,3.73-8.62,1.12-16.53-1.19-23.51-1.27-3.86-2.48-7.51-2.71-11.18-.53-8.25-1.28-31.66,3.09-70.59,1.37-12.22-.64-24.12-5.99-35.37l-1.44-3.04h0Z" fill="#44322a"/><path d="M134,524.17c-16.64,0-28.12-25.76-33.02-36.75-13.66-30.63-13.29-48.17-10.86-62.55,3.87-22.87,3.49-36.87,2.49-44.58-1.08-8.35-3.11-11.32-3.12-11.35l-1.41-2.02,2.31-.83,35.75-12.39.66,1.66c4.47,11.3,5.13,23.82,4.73,39.13-.26,10.22-.72,19.66-1.12,27.98-.24,4.91-.44,9.15-.56,12.73-.09,2.54.96,8.96,1.65,11.39,2.83,10.08,13.39,43.13,30.25,45.23.49.06.97.09,1.44.09h0c5.83,0,10.19-4.86,12.96-14.46,2.2-7.62,2.45-15.38,2.46-15.46l-1-75.31.02-.68c.11-2.69.29-7.2-1.94-9.92-10.96-13.39-21.33-22.42-21.43-22.51l-1.39-1.21,25.1-29.63,1.42,1.22c32,27.51,33.3,42.34,33.34,42.96v.12s-.31,113.22-.31,113.22l-.85.55c-2.24,1.45-55.07,35.56-71.13,42.04-2.12.86-4.29,1.29-6.42,1.29h0Z" fill="#eadabe"/><path d="M178.16,325.39c31.77,27.32,32.7,41.67,32.7,41.67l-.31,112.21s-54.74,35.39-70.82,41.88c-1.97.79-3.88,1.16-5.73,1.16-15.22,0-26.37-24.55-31.32-35.65-13.04-29.24-13.3-46.27-10.72-61.49,7.72-45.6-.96-57.32-.96-57.32l34.06-11.8c4.41,11.14,4.98,23.84,4.6,38.4-.42,16.28-1.35,31.09-1.68,40.7-.09,2.75.97,9.31,1.72,11.96,3.26,11.58,13.98,44.35,31.81,46.57.58.07,1.13.11,1.67.11,16.34,0,17.28-31.72,17.28-31.72l-1-75.39c.1-2.9.52-8.26-2.34-11.75-11.2-13.69-21.65-22.74-21.65-22.74l22.69-26.8M177.75,320.12l-2.42,2.86-22.69,26.8-2.38,2.81,2.79,2.41c.1.09,10.36,9.02,21.21,22.28,1.78,2.18,1.62,6.24,1.52,8.67l-.02.59v.09s0,.09,0,.09l.99,75.29c-.07,1.47-1.49,28.05-13.55,28.05-.39,0-.8-.03-1.21-.08-12.49-1.56-23.01-23.69-28.69-43.89-.7-2.5-1.65-8.63-1.58-10.82.12-3.57.33-7.82.56-12.73.4-8.33.85-17.77,1.12-27.99.4-15.55-.27-28.27-4.86-39.87l-1.31-3.31-3.37,1.17-34.06,11.8-5.07,1.76,3.27,3.94c.49.83,7.29,13.3.32,54.52-2.48,14.68-2.87,32.54,10.99,63.62,5.05,11.33,16.88,37.86,34.72,37.86,2.38,0,4.78-.48,7.12-1.43,16.22-6.55,69.2-40.75,71.45-42.21l1.7-1.1v-2.02s.32-112.21.32-112.21v-.12s0-.12,0-.12c-.1-1.63-1.95-16.71-33.98-44.25l-2.84-2.45h0Z" fill="#44322a"/><path d="M193.72,279.53l4.84-73.39-13.21-18.61,36.86-12.13,13.78,22.85-.07.63c-2.65,23.2-5.54,60.46-6.04,66.95l20.4,16.44-29.22,25.21-27.35-27.94Z" fill="#eadabe"/><path d="M221.39,177.63l12.69,21.03c-2.93,25.68-6.12,67.99-6.12,67.99l19.43,15.65-26.21,22.61-25.55-26.09,4.83-73.22-12.13-17.09,33.05-10.88M223.04,173.16l-2.82.93-33.05,10.88-4.79,1.58,2.92,4.11,11.36,16.02-4.74,71.9-.11,1.66,1.16,1.19,25.55,26.09,2.45,2.5,2.65-2.28,26.21-22.61,3.38-2.92-3.48-2.8-17.9-14.43c.66-8.61,3.43-43.71,5.96-65.9l.14-1.26-.66-1.09-12.69-21.03-1.53-2.54h0Z" fill="#44322a"/><path d="M348.54,271.92l5.87-73.32-12.94-18.79,37.03-11.62,13.46,23.04-.08.63c-2.97,23.16-6.39,60.38-6.98,66.86l20.17,16.72-29.57,24.8-26.96-28.32Z" fill="#eadabe"/><path d="M377.63,170.41l12.39,21.21c-3.29,25.64-7.07,67.9-7.07,67.9l19.21,15.93-26.52,22.24-25.18-26.45,5.85-73.15-11.89-17.26,33.2-10.42M379.35,165.97l-2.83.89-33.2,10.42-4.81,1.51,2.86,4.15,11.14,16.17-5.75,71.83-.13,1.66,1.15,1.21,25.18,26.45,2.41,2.53,2.68-2.25,26.52-22.24,3.42-2.87-3.44-2.85-17.7-14.67c.78-8.6,4.04-43.66,6.88-65.81l.16-1.26-.64-1.09-12.39-21.21-1.5-2.56h0Z" fill="#44322a"/><path d="M299.44,301.62c-.59-.21-14.55-5.19-28.9-15.69-19.18-14.03-29.62-31.22-30.17-49.72-.55-18.53,8.69-35.56,26.72-49.25,13.48-10.23,26.92-14.95,27.49-15.15l1.42-.49.78,1.29c12.03,19.86,39.77,20.86,45.21,20.86.7,0,1.09-.02,1.11-.02l3.75-.16-22.43,32.18-1.17-.21c-30.37-5.36-44.34-20.19-49.36-27.13-5.07,18.62-3.4,33.96,4.97,45.62,16.92,23.57,55.86,24.65,56.25,24.66l4.93.1-39.6,33.45-1.01-.35Z" fill="#eadabe"/><path d="M295.19,173.57c12.48,20.61,40.68,21.76,46.81,21.76.77,0,1.19-.02,1.19-.02l-19.6,28.13c-38.88-6.86-50.32-29.76-50.32-29.76-23.52,74.82,61.81,76.6,61.81,76.6l-35.02,29.58s-56.52-19.93-57.83-63.71c-1.31-43.78,52.96-62.58,52.96-62.58M296.81,169.06l-2.84.99c-.58.2-14.28,5.01-28,15.43-18.54,14.07-28.03,31.63-27.46,50.79.57,19.09,11.26,36.79,30.93,51.17,14.57,10.66,28.79,15.73,29.39,15.94l2.01.71,1.63-1.38,35.02-29.58,7.53-6.36-9.85-.21c-.38,0-38.46-1.12-54.79-23.9-7.47-10.42-9.34-23.99-5.58-40.4,6.69,7.83,21.09,20.08,48.15,24.86l2.34.41,1.36-1.95,19.6-28.13,4.3-6.17-7.51.32s-.4.01-1.03.01c-5.27,0-32.11-.96-43.62-19.97l-1.56-2.57h0Z" fill="#44322a"/><path d="M579.32,289.64c-26.92,0-50.84-17.1-51.85-17.83l-1.22-.88.61-1.38c10.59-24-.47-81.12-.59-81.7l-.44-2.22,37.73-.07.5,1.08c4.87,10.45,9.51,29.2,4,59.2-2.29,12.47-5.55,22.68-7.37,27.88,16.86-6.12,27.96-16.02,33-29.47,6.08-16.21,2.28-34.88-1.97-47.69-4.66-14.03-10.88-24.3-10.94-24.4l-2.33-3.82,44.96,10.7.33.99c.06.18,5.92,18.22,7.37,39.24,1.94,28.18-4.92,48.94-19.81,60.04-9.2,6.85-19.96,10.32-31.99,10.32h0Z" fill="#eadabe"/><path d="M582.38,171.19l39.6,9.43s23.34,71.04-11.79,97.2c-9.83,7.32-20.54,9.96-30.88,9.96-26.62,0-50.76-17.48-50.76-17.48,10.95-24.81-.46-82.81-.46-82.81l34.29-.06c16.67,35.79-4.78,89.31-4.78,89.31,74.79-23.61,24.78-105.55,24.78-105.55M574.54,165.5l4.66,7.63h0c.24.4,24.12,40.18,12.75,70.48-4.47,11.92-13.95,20.95-28.22,26.93,1.86-5.74,4.32-14.33,6.17-24.36,4.49-24.47,3.1-44.76-4.15-60.32l-1-2.16h-2.38s-34.29.06-34.29.06h-4.52s.87,4.44.87,4.44c.03.14,2.84,14.56,4.29,31.77,1.88,22.37.64,39.25-3.58,48.82l-1.22,2.75,2.44,1.77c1.03.74,25.43,18.18,52.94,18.18,12.44,0,23.58-3.6,33.11-10.69,8.7-6.48,14.77-15.99,18.03-28.26,2.54-9.54,3.39-20.78,2.52-33.4-1.46-21.25-7.21-38.95-7.46-39.7l-.65-1.98-2.03-.48-39.6-9.43-8.7-2.07h0Z" fill="#44322a"/><path d="M335.34,461.54l-3.06-78.15-15.03-18.26,35.31-16.46,10.36,14.62c9.61-8.1,17.95-12.35,18.32-12.54l1.41-.71.93,1.27c9.97,13.62,19.56,16.48,25.86,16.48,3.08,0,4.99-.72,5.01-.73l4.51-1.75-2.16,4.32-16.63,33.07-1.24-.09c-22.06-1.58-26.25-8.77-29.94-15.11-.09-.15-.18-.3-.27-.46.2,23.5.98,51.16,1.14,56.56l21.96,15.31-26.29,29.48-30.2-26.85Z" fill="#eadabe"/><path d="M351.94,351.01l10.64,15.02c10.2-8.92,19.49-13.62,19.49-13.62,10.68,14.59,21.16,17.24,27.36,17.24,3.54,0,5.69-.86,5.69-.86l-16.07,31.96c-27.68-1.98-25.62-12.7-32.24-19.61.11,27.29,1.21,63.45,1.21,63.45l21.01,14.65-23.65,26.53-28.22-25.09-3.05-77.98-13.9-16.89,31.73-14.79M353.18,346.32l-2.82,1.31-31.73,14.79-4.35,2.03,3.05,3.71,13.11,15.93,3,76.73.06,1.58,1.18,1.05,28.22,25.09,2.78,2.47,2.47-2.78,23.65-26.53,2.79-3.13-3.44-2.4-19.47-13.57c-.18-6.45-.79-28.47-1.04-49.16,3.96,5.01,10.9,9.78,28.14,11.02l2.48.18,1.12-2.22,16.07-31.96,4.42-8.8-9.14,3.67h0s-1.65.6-4.3.6c-10.63,0-19.11-8.55-24.36-15.72l-1.87-2.55-2.82,1.43c-.36.18-8,4.08-17.12,11.49l-8.3-11.71-1.8-2.53h0Z" fill="#44322a"/><path d="M460.21,298.32c-1.81-.43-44.56-10.87-57.67-42.78-7.45-18.13-3.66-39.41,11.26-63.26l.37-.59.67-.2c.23-.07,23.44-7.15,40.84-21.34l.67-.54.85.16c.48.09,11.96,2.23,25.25,8.22,17.74,7.99,30.07,19.09,35.63,32.08,7.42,17.31,3.37,38.02-12.05,61.55l-.32.49-.54.22c-.3.12-29.98,12.28-43.22,25.52l-.73.73-1.01-.24ZM424.89,203.46c-3.83,15.8-2.06,28.6,5.27,38.07,13.93,17.99,44.9,19.93,57.57,19.93,3.03,0,5.38-.1,6.76-.18,3.79-17.06,1.83-30.62-5.83-40.31-5.35-6.77-19.15-18.12-51.47-18.12-5.74,0-10.23.39-12.3.61Z" fill="#eadabe"/><path d="M456.87,171.59s100.41,18.38,47.61,98.99c0,0-30.17,12.26-43.84,25.93,0,0-95.69-22.63-45.25-103.24,0,0,23.57-7.07,41.48-21.68M487.73,263.32c5.07,0,8.26-.28,8.26-.28,13.08-55.15-34.29-62.05-58.8-62.05-8.17,0-13.8.77-13.8.77-14.55,56.28,42.42,61.56,64.33,61.56M455.85,167.61l-1.33,1.09c-17.1,13.95-39.97,20.93-40.2,21l-1.34.4-.74,1.19c-15.26,24.38-19.1,46.24-11.41,64.95,5.61,13.66,17.63,25.59,34.75,34.5,12.75,6.63,23.75,9.28,24.21,9.38l2.02.48,1.47-1.47c12.97-12.97,42.31-24.99,42.61-25.11l1.08-.44.64-.97c15.78-24.09,19.88-45.38,12.2-63.3-5.76-13.43-18.41-24.86-36.58-33.05-13.49-6.08-25.18-8.26-25.67-8.35l-1.69-.31h0ZM426.4,205.18c2.33-.21,6.15-.47,10.8-.47,13.54,0,38.03,2.26,50.01,17.41,7.09,8.97,9.03,21.53,5.77,37.36-1.34.06-3.12.11-5.24.11-12.39,0-42.67-1.87-56.1-19.21-6.77-8.75-8.53-20.58-5.24-35.21h0Z" fill="#44322a"/><path d="M568.07,477.52c-.58-.24-14.28-5.92-28.08-17.12-18.45-14.98-28.01-32.67-27.63-51.17.38-18.53,10.46-35.08,29.17-47.84,13.98-9.54,27.64-13.58,28.21-13.75l1.45-.42.71,1.33c12.18,22.6,44.89,23.14,45.22,23.15l3.76.03-28.39,36.66c-.39.56-10.52,14.67-36.02,17.71,17.83,17.63,48.58,20.05,48.91,20.07l4.91.35-41.22,31.42-.99-.4ZM547.76,372.88c-6.1,18.66-5.07,34.26,3.08,46.42,9.31-3.04,21.02-9.36,27.48-22.43-18.04-7.72-26.91-18.4-30.56-23.99Z" fill="#eadabe"/><path d="M570.26,349.42c12.87,23.87,46.85,24.13,46.85,24.13l-20.99,27.11-5.1,6.59s-10.75,15.4-38.49,17.35c18,20.94,52.72,23.42,52.72,23.42l-36.46,27.79s-55.45-22.74-54.56-66.54c.89-43.79,56.04-59.84,56.04-59.84M550.09,421.49c10.51-3.18,23.97-10.18,30.74-25.59h0c-26.01-10.49-33.48-27.5-33.48-27.5-9.03,24.36-5.72,41.31,2.73,53.09M572.11,345l-2.89.84c-.59.17-14.52,4.29-28.74,14-19.22,13.12-29.59,30.18-29.98,49.34-.39,19.1,9.4,37.3,28.32,52.66,14.02,11.38,27.96,17.16,28.55,17.4l1.97.81,1.7-1.29,36.46-27.79,7.84-5.97-9.83-.7c-.3-.02-27.31-2.16-44.88-16.94,22.73-3.92,32.4-16.56,33.37-17.9l5.06-6.53,20.99-27.11,4.6-5.95-7.52-.06c-.31,0-31.95-.56-43.6-22.17l-1.43-2.65h0ZM551.61,417.07c-6.61-10.71-7.67-24.14-3.17-40.05,4.53,5.86,12.95,14.23,27.3,20.75-6,10.74-15.85,16.37-24.13,19.3h0Z" fill="#44322a"/><path d="M281.63,485.36c-.63-.08-15.67-2.08-30.92-10.68-20.4-11.51-31.15-29.37-31.09-51.67.11-45.9,50.98-68.12,51.49-68.34l1.45-.62.85,1.33c11.45,17.85,34.43,19.77,43.78,19.77,2.08,0,3.33-.1,3.34-.1l3.68-.3-24.86,40.16c-.34.61-9.16,16.08-34.37,21.51,18.38,15.78,46.97,16.26,50.31,16.26h.32s5.16-.09,5.16-.09l-38.33,32.88-.82-.1ZM251.57,382.53c-4.38,19.77-1.93,35.73,7.3,47.52,9.01-3.99,20.11-11.59,25.34-25.67-18.68-6.28-28.49-16.43-32.64-21.85Z" fill="#eadabe"/><path d="M271.83,356.39c12.05,18.79,36.31,20.63,45.35,20.63,2.2,0,3.5-.11,3.5-.11l-4.52,7.3-18.4,29.72s-9.3,16.81-36.75,21.35c18.66,18.71,50.57,19.26,54.28,19.26.23,0,.35,0,.35,0l-33.78,28.98s-60.52-7.72-60.39-60.5c.11-45.2,50.36-66.63,50.36-66.63M258.31,432.31c10.17-4.23,22.94-12.66,28.28-29.11h0c-26.86-8.4-35.85-25.21-35.85-25.21-6.77,25.86-1.94,42.98,7.56,54.32M273.27,351.73l-2.9,1.23c-.54.23-13.26,5.72-26.13,16.99-17.28,15.13-26.44,33.48-26.49,53.06-.06,23.01,11.02,41.44,32.04,53.29,15.57,8.78,30.95,10.83,31.6,10.91l1.64.21,1.26-1.08,33.78-28.98,7.85-6.73-10.34.18h-.29c-3.1,0-28.34-.41-46.17-13.49,22.48-6.08,31.02-20.05,31.85-21.5l18.36-29.66,4.52-7.3,3.89-6.29-7.37.62s-1.2.1-3.19.1c-27.15,0-38.57-13.23-42.22-18.92l-1.7-2.65h0ZM259.45,427.73c-7.59-10.45-9.87-24.22-6.82-41.05,5.06,5.61,14.22,13.43,29.13,18.81-4.98,11.7-14.3,18.43-22.31,22.23h0Z" fill="#44322a"/><path d="M464.86,488.48c-.09-.29-8.92-29.14-31.9-29.14-6.64,0-13.96,2.38-21.75,7.08l-5.1,3.08,14.7-32.79.63-.29c.32-.15,8.04-3.69,18.37-3.69,11.64,0,27.48,4.57,38.46,25.7,1-2.82,1.86-7.14.3-11.75-2.39-7.06-9.55-12.79-21.31-17.04-22.31-4.82-37.09-16.14-40.57-31.1-2.45-10.53.96-21.76,9.61-31.63,6.52-7.45,17.86-17.18,30.11-22.16l1.73-.7.7,1.73c.09.22,9.15,21.94,30.49,21.94,7.64,0,16.06-2.75,25.03-8.16l5.1-3.08-14.66,32.68-.5.3c-.38.23-9.55,5.7-21.26,5.7-10.06,0-23.85-4.19-33.92-23.53-1,2.82-1.86,7.14-.3,11.75,2.39,7.06,9.55,12.79,21.31,17.04,22.31,4.82,37.09,16.14,40.57,31.1,2.45,10.53-.96,21.76-9.61,31.63-7,7.98-21.76,21.63-33.75,26.51l-1.9.77-.58-1.97Z" fill="#eadabe"/><path d="M457.12,346.48s9.31,23.1,32.21,23.1c7.25,0,15.87-2.32,25.99-8.43l-11.98,26.72s-8.97,5.43-20.3,5.43-24.52-5.24-33.95-25.98c0,0-14.55,22.28,20.53,34.91,23.37,5.01,36.21,16.58,39.27,29.72,2.29,9.81-.89,20.5-9.2,29.98-6.28,7.17-21.02,21.12-33.05,26.01,0,0-9.01-30.47-33.69-30.47-6.46,0-13.99,2.09-22.71,7.35l11.98-26.72s7.55-3.51,17.58-3.51c12.19,0,28.05,5.19,38.49,28.16,0,0,14.55-22.28-20.53-34.91-23.37-5.01-36.21-16.58-39.27-29.72-2.29-9.81.89-20.5,9.2-29.98,6.28-7.17,17.39-16.77,29.41-21.66M459.17,341.63l-3.46,1.41c-12.55,5.1-24.14,15.05-30.8,22.65-9.06,10.33-12.62,22.15-10.02,33.28,3.65,15.65,18.9,27.48,41.87,32.47,11.1,4.04,17.84,9.35,20.04,15.81.73,2.13.87,4.21.72,6.06-11.23-18.31-26.36-22.42-37.7-22.42-10.74,0-18.82,3.7-19.16,3.86l-1.26.59-.57,1.27-11.98,26.72-4.87,10.86,10.19-6.15c7.49-4.52,14.48-6.82,20.78-6.82,21.56,0,30.03,27.53,30.12,27.81l1.17,3.93,3.8-1.54c12.29-5,27.33-18.89,34.44-27,9.06-10.33,12.62-22.15,10.03-33.28-3.65-15.65-18.9-27.48-41.87-32.47-11.1-4.04-17.84-9.35-20.05-15.81-.73-2.14-.87-4.22-.72-6.08,10.22,16.53,23.36,20.27,33.16,20.27,12.23,0,21.82-5.73,22.23-5.97l.99-.6.47-1.06,11.98-26.72,4.87-10.86-10.19,6.15c-8.67,5.24-16.77,7.89-24.07,7.89-20.15,0-28.67-20.56-28.76-20.77l-1.4-3.46h0Z" fill="#44322a"/><path d="M659.8,503.16c-.08-.31-8.47-31.15-31.73-31.15-6.17,0-12.98,2.15-20.22,6.39l-5.05,2.96,14.89-32.83.65-.29c.28-.13,7.08-3.09,16.34-3.09,11.94,0,28.08,4.93,38.82,27.73,1.01-2.88,1.88-7.25.41-12.02-2.25-7.3-9.15-13.44-20.51-18.24-21.7-5.81-35.94-17.96-39.07-33.36-2.2-10.83,1.33-22.17,9.95-31.91,6.51-7.37,17.77-16.88,29.84-21.49l1.77-.67.65,1.78c.09.24,8.89,23.71,30.62,23.71h0c7.11,0,14.95-2.48,23.29-7.36l5.05-2.96-14.84,32.73-.51.3c-.35.21-8.7,5.04-19.5,5.04h0c-10.29,0-24.3-4.51-34.13-25.32-1.01,2.88-1.88,7.25-.42,12.02,2.25,7.3,9.15,13.44,20.51,18.24,21.7,5.81,35.94,17.97,39.07,33.36,2.2,10.83-1.33,22.17-9.95,31.91-6.98,7.89-21.66,21.28-33.47,25.8l-1.94.74-.53-2.01Z" fill="#eadabe"/><path d="M654.78,357.59s9.03,24.94,32.38,24.94c6.81,0,14.85-2.13,24.23-7.61l-12.18,26.86s-8.14,4.78-18.56,4.78c-11.12,0-24.86-5.45-34.08-27.96,0,0-14.61,22.21,19.44,36.53,22.74,6.06,35.09,18.4,37.85,31.97,2.06,10.13-1.23,20.94-9.52,30.31-6.26,7.08-20.91,20.77-32.75,25.29,0,0-8.53-32.53-33.53-32.53-6.05,0-13.07,1.91-21.16,6.64l12.18-26.86s6.61-2.93,15.59-2.93c12.11,0,28.51,5.33,38.77,30.37,0,0,14.61-22.21-19.44-36.53-22.74-6.06-35.09-18.4-37.85-31.97-2.06-10.13,1.23-20.94,9.52-30.31,6.26-7.08,17.28-16.46,29.11-20.99M656.98,352.77l-3.53,1.34c-12.39,4.73-23.91,14.47-30.57,22-9.01,10.19-12.7,22.09-10.37,33.51,3.27,16.08,17.95,28.74,40.29,34.75,10.74,4.56,17.24,10.27,19.32,16.97.67,2.14.8,4.2.66,6.05-11.07-19.69-26.48-24.12-38.1-24.12-9.65,0-16.8,3.12-17.1,3.25l-1.3.57-.59,1.29-12.18,26.86-4.84,10.66,10.11-5.91c6.96-4.07,13.44-6.13,19.28-6.13,21.8,0,29.85,29.46,29.93,29.76l1.06,4,3.87-1.47c12.13-4.64,27.1-18.27,34.21-26.3,9.01-10.19,12.7-22.09,10.37-33.52-3.27-16.08-17.95-28.74-40.29-34.75-10.74-4.56-17.24-10.27-19.32-16.97-.67-2.15-.81-4.22-.66-6.08,10.05,17.72,23.39,21.74,33.41,21.74,11.31,0,20.08-5.08,20.45-5.29l1.02-.6.49-1.07,12.18-26.86,4.84-10.66-10.11,5.91c-8.06,4.71-15.58,7.11-22.35,7.11-8.45,0-15.83-3.69-21.94-10.95-4.76-5.67-6.92-11.48-6.94-11.54l-1.3-3.54h0Z" fill="#44322a"/><path d="M693.25,333.84c-.1-.35-10.09-35.46-37.23-35.46-7.43,0-15.62,2.61-24.32,7.75l-5.08,3,16.81-37.1.64-.29c.34-.16,8.58-3.81,19.74-3.81,13.77,0,32.48,5.62,44.99,31.73,1.28-3.32,2.58-8.75.69-14.67-2.69-8.46-10.89-15.47-24.37-20.84-25.38-6.27-42.08-19.93-45.84-37.48-2.64-12.34,1.39-25.35,11.37-36.63,7.55-8.55,20.64-19.64,34.69-25.14l1.75-.68.67,1.76c.1.27,10.5,26.91,35.81,26.91,8.54,0,17.96-3,27.98-8.92l5.08-3-16.76,36.99-.5.3c-.42.25-10.4,6.08-23.27,6.08-20.76,0-32.85-15.03-39.61-29.04-1.28,3.32-2.58,8.75-.7,14.67,2.69,8.46,10.89,15.47,24.37,20.84,25.38,6.27,42.08,19.93,45.84,37.48,2.64,12.34-1.39,25.35-11.37,36.63-8.11,9.17-25.16,24.77-38.92,30.15l-1.92.75-.55-1.99Z" fill="#eadabe"/><path d="M686.03,166.65s10.61,28.11,37.55,28.11c8.11,0,17.7-2.55,28.93-9.18l-14.09,31.09s-9.82,5.82-22.32,5.82-28.74-6.23-39.54-31.55c0,0-16.97,25.79,23.04,41.66,26.7,6.57,41.26,20.55,44.59,36.09,2.49,11.61-1.29,24.09-10.94,35.01-7.29,8.25-24.37,24.24-38.2,29.65,0,0-10.11-36.83-39.02-36.83-7.21,0-15.59,2.29-25.27,8.01l14.09-31.09s8.09-3.65,18.98-3.64c14.11,0,32.93,6.13,44.93,34.25,0,0,16.97-25.79-23.04-41.66-26.7-6.57-41.26-20.55-44.59-36.09-2.49-11.61,1.29-24.09,10.94-35.01,7.29-8.25,20.14-19.23,33.98-24.63M688.18,161.82l-3.51,1.37c-14.37,5.61-27.71,16.92-35.41,25.64-10.37,11.74-14.56,25.32-11.79,38.25,3.91,18.25,21.06,32.4,47.09,38.87,12.84,5.13,20.63,11.72,23.15,19.58,1.06,3.29,1.03,6.43.58,9.07-12.86-23.33-30.95-28.52-44.48-28.52-11.56,0-20.15,3.81-20.51,3.97l-1.28.58-.58,1.28-14.09,31.09-4.87,10.74,10.15-6c8.41-4.97,16.28-7.49,23.37-7.49,25.7,0,35.34,33.75,35.43,34.09l1.1,3.98,3.84-1.5c14.07-5.5,31.41-21.34,39.64-30.65,10.37-11.74,14.56-25.32,11.79-38.25-3.91-18.25-21.07-32.4-47.09-38.87-12.84-5.13-20.63-11.72-23.15-19.58-1.06-3.3-1.03-6.44-.58-9.09,11.71,21.12,27.41,25.84,39.09,25.84,13.37,0,23.79-6.08,24.22-6.34l1.01-.6.48-1.07,14.09-31.09,4.87-10.74-10.15,6c-9.73,5.75-18.83,8.66-27.03,8.66-24.09,0-33.97-25.45-34.07-25.71l-1.33-3.52h0Z" fill="#44322a"/><path d="M215.62,336.57c11.65-8.03,13.39-19.99,13.4-20.11l.23-1.72,1.73.11c7.95.5,17.57.75,28.58.75,54,0,126.73-6.08,127.46-6.14l8.11-.68-7.01,4.14c-14.27,8.43-13.25,20.76-13.24,20.89l.26,2.67-2.59-.69c-6.35-1.69-18.26-2.55-35.39-2.55-47.41,0-119.6,6.65-120.32,6.72l-7.1.66,5.87-4.05Z" fill="#eadabe"/><path d="M387.18,311.32c-15.46,9.13-14.14,22.67-14.14,22.67-7.13-1.9-20.2-2.61-35.87-2.61-48.05,0-120.49,6.73-120.49,6.73,12.46-8.59,14.19-21.4,14.19-21.4,8.48.53,18.26.76,28.7.76,54.71,0,127.61-6.15,127.61-6.15M403.09,306.24l-16.22,1.37c-.73.06-73.38,6.13-127.3,6.13-10.97,0-20.55-.25-28.46-.75l-3.46-.22-.46,3.43c-.06.44-1.76,11.35-12.62,18.83l-11.75,8.09,14.2-1.32c.72-.07,72.82-6.71,120.15-6.71,16.97,0,28.71.84,34.91,2.49l5.18,1.38-.52-5.34c-.03-.43-.74-11.38,12.33-19.1l14.02-8.28h0Z" fill="#44322a"/><path d="M627.85,337.86c-28.06-2.59-40.86-3.77-62.44-3.77-19.45,0-46.33,1-95.12,2.83l-7.82.29,6.85-3.78c4.5-2.48,7.29-5.6,8.28-9.27,1.46-5.39-1.42-10.34-1.45-10.39l-2.07-3.48,3.99.69c20.1,3.5,67.64,4.23,103.99,4.23,32.14,0,59.03-.57,59.29-.58l6.57-.14-5.52,3.57c-11.78,7.62-12.51,17.96-12.51,18.06l-.11,1.92-1.92-.18Z" fill="#eadabe"/><path d="M477.74,312.81c19.9,3.46,66.07,4.26,104.32,4.26,32.53,0,59.33-.58,59.33-.58-12.71,8.22-13.36,19.52-13.36,19.52-27.79-2.57-40.97-3.78-62.61-3.78-19.4,0-45.59.98-95.19,2.83,15.72-8.68,7.52-22.25,7.52-22.25M470.33,307.74l4.21,6.98c.09.17,2.5,4.44,1.25,8.98-.87,3.15-3.35,5.87-7.37,8.1l-13.7,7.56,15.64-.58c48.77-1.82,75.64-2.83,95.05-2.83,21.49,0,34.27,1.18,62.27,3.77l3.84.35.22-3.85c.03-.36.84-9.61,11.66-16.6l11.03-7.13-13.13.28c-.27,0-27.13.57-59.25.57-52.02,0-87.87-1.45-103.68-4.2l-8.05-1.4h0Z" fill="#44322a"/><path d="M174,590.93c-11.3,0-20.96-2.95-27.96-8.52-6.92-5.52-10.73-13.28-10.73-21.85,0-12.2,9.93-22.13,22.13-22.13,6.78,0,12.81,4.07,15.36,10.36.87,2.05,1.32,4.25,1.32,6.52,0,9.27-7.54,16.82-16.82,16.82-3.65,0-7.09-1.16-9.9-3.21,1.17,2.14,2.8,4.07,4.85,5.7,5.21,4.16,12.73,6.35,21.75,6.35,39.44,0,72.69-21.21,104.85-41.73,30.87-19.7,60.03-38.3,93.33-38.3,13.65,0,28.58,3.77,40.97,10.34l1.65.87-1.95,3.66-1.46-.43c-12.62-3.71-28.29-4.49-39.22-4.49-15.72,0-33.92,6.11-48.7,16.34-15.45,10.7-25.19,24.51-26.73,37.89l-.13,1.12-1.05.4c-3.03,1.16-5.87,1.75-8.44,1.75-4.31,0-7.94-1.64-10.48-4.76-2.21-2.7-3.25-6.04-3.46-9.02-30.81,19.35-61.77,36.3-99.18,36.3Z" fill="#eadabe"/><path d="M372.18,502.81c13.35,0,27.97,3.69,40.1,10.13l-.36.67c-12.11-3.57-27.37-4.57-39.74-4.57-33.11,0-73.82,25.83-77.28,55.88-2.97,1.13-5.55,1.62-7.78,1.62-10.08,0-13-9.98-11.91-15.4-30.68,19.42-62.76,37.92-101.22,37.92-10.87,0-20.14-2.81-26.79-8.12-6.47-5.16-10.03-12.4-10.03-20.39,0-11.18,9.09-20.27,20.27-20.27,6.16,0,11.45,3.81,13.63,9.2.76,1.79,1.18,3.76,1.18,5.82,0,8.25-6.71,14.96-14.96,14.96-6.28,0-11.67-3.9-13.88-9.4.09,5.93,2.8,11.33,7.67,15.21,5.54,4.42,13.46,6.76,22.91,6.76,39.99,0,73.47-21.36,105.85-42.02,30.63-19.55,59.57-38.01,92.33-38.01M372.18,499.08c-33.85,0-63.23,18.74-94.33,38.59-31.93,20.38-64.95,41.44-103.85,41.44-8.17,0-15.01-1.86-19.85-5.39,1.03.17,2.08.26,3.15.26,10.3,0,18.68-8.38,18.68-18.68,0-2.51-.49-4.95-1.46-7.25-2.84-6.99-9.54-11.5-17.07-11.5-13.23,0-23.99,10.76-23.99,23.99,0,9.15,4.06,17.42,11.43,23.3,7.32,5.84,17.39,8.93,29.12,8.93,36.93,0,67.52-16.21,97.78-35.09.57,2.47,1.67,4.98,3.42,7.12,2.91,3.56,7.03,5.44,11.93,5.44,2.8,0,5.87-.63,9.11-1.87l2.11-.81.26-2.24c1.48-12.85,10.94-26.18,25.94-36.58,14.47-10.02,32.28-16.01,47.64-16.01,10.8,0,26.29.77,38.69,4.42l2.92.86,1.42-2.69.36-.67,1.74-3.29-3.29-1.75c-12.65-6.71-27.9-10.56-41.84-10.56h0Z" fill="#44322a"/><path d="M228.32,550.58c-2.4-4.39-2.5-8.96-.3-13.61,8.02-16.93,48-34.04,104.35-44.65l2.21-.42v3.97l-1.37.37c-20.11,5.45-44.56,20.73-66.13,34.21-13.55,8.47-26.35,16.46-36.36,20.93l-1.57.7-.82-1.51Z" fill="#eadabe"/><path d="M332.71,494.15v.3c-33.13,8.98-77.07,43.78-102.76,55.24-11.36-20.77,37.67-43.28,102.76-55.53M336.43,489.66l-4.41.83c-26.75,5.04-50.61,11.73-69,19.37-20.01,8.31-32.35,17.16-36.68,26.31-2.43,5.14-2.31,10.43.35,15.3l1.65,3.01,3.14-1.4c10.13-4.52,22.98-12.55,36.58-21.05,21.46-13.41,45.79-28.61,65.64-33.99l2.75-.75v-7.64h0Z" fill="#44322a"/><path d="M669.85,553.61c-1.51,0-3-.52-4.32-1.49l-.58-.43-.14-.7c-4.75-23.77-24.28-37-24.47-37.11.06.03.37.2.83.2v-1.86l-1.63-.9.92-1.66,1.56.7c28.94,13,37.16,27.37,35.21,36.48-.87,4.05-3.83,6.78-7.37,6.78h0Z" fill="#eadabe"/><path d="M641.26,512.05c42.73,19.2,36.69,39.7,28.59,39.7-1.07,0-2.18-.36-3.21-1.13-4.9-24.49-25.14-38.41-25.47-38.41,0,0,0,0,0,0l.09-.16M639.65,507.25l-1.66,3-.09.16,3.26,1.8v3.72s0,0,0,0c-.96,0-1.64-.38-1.77-.46.19.11,19.05,13.17,23.59,35.87l.28,1.41,1.15.85c1.64,1.22,3.52,1.86,5.43,1.86,4.44,0,8.14-3.31,9.2-8.25.68-3.19.78-9.79-6.24-18.16-6.18-7.36-16.28-14.23-30.02-20.4l-3.13-1.41h0Z" fill="#44322a"/><path d="M631.03,582.69c-2.91,0-5.86-.65-8.78-1.92-5.55-2.42-9.54-6.33-11.55-11.31-1.88-4.68-1.79-9.86.27-14.58,2.72-6.25,8.89-10.3,15.72-10.3,2.36,0,4.66.48,6.84,1.43,1.91.83,3.63,1.99,5.1,3.42-2.37-15.88-18.45-29.56-33.99-37.58-19.98-10.3-53.25-20.69-82.56-20.69-19.94,0-35.15,4.66-45.22,13.85l-2.15,1.96-.88-2.78c-.45-1.43-.25-5.53,11.43-12.63,10.41-6.13,26.21-9.5,44.53-9.5,26.64,0,55.98,6.89,80.49,18.91,28.45,13.95,51.3,41.75,39.91,67.88-3.77,8.66-10.93,13.82-19.15,13.82h0Z" fill="#eadabe"/><path d="M529.78,483.93c24.77,0,53.94,6.1,79.67,18.72,26.89,13.18,50.22,39.76,39.02,65.47-3.44,7.91-9.92,12.7-17.44,12.7-2.58,0-5.29-.56-8.03-1.76-10.73-4.68-14.01-14.98-10.32-23.44,2.5-5.75,8.12-9.18,14.01-9.18,2.04,0,4.11.41,6.09,1.27,3.7,1.61,6.43,4.51,7.91,7.94,1.09-13.74-8.59-31.74-35.22-45.46-20.42-10.52-53.84-20.89-83.41-20.89-18.3,0-35.12,3.97-46.47,14.34,0,0-1.07-3.37,10.62-10.48,10.36-6.1,25.84-9.23,43.57-9.23M529.78,480.21c-18.92,0-34.64,3.37-45.46,9.75h-.02s-.02.03-.02.03c-11.73,7.13-13.13,11.98-12.24,14.79l1.76,5.55,4.3-3.93c9.71-8.87,24.5-13.36,43.96-13.36,29,0,61.93,10.29,81.71,20.48,11.92,6.14,20.89,13.4,26.66,21.56,2.31,3.26,4.03,6.58,5.13,9.86-.43-.22-.86-.43-1.3-.63-2.41-1.05-4.96-1.58-7.58-1.58-7.56,0-14.4,4.48-17.42,11.41-4.8,11.02.46,23.21,12.25,28.34,3.16,1.38,6.36,2.07,9.52,2.07,8.98,0,16.78-5.58,20.86-14.94,5.69-13.06,3.77-27.24-5.56-41.01-7.75-11.43-20.59-22.11-35.24-29.29-24.76-12.14-54.39-19.1-81.31-19.1h0Z" fill="#44322a"/><path d="M336.11,158.5c-4.85,0-9.61-1.27-13.8-3.68-.45.02-.9.03-1.34.03-15.51,0-23.63-13.38-23.63-26.6,0-1.1.06-2.19.17-3.26h-25.92c-.72,4.56-.85,9.25-.37,13.95l.13,1.28-1.15.57c-5.57,2.77-10.74,4.18-15.39,4.18-9.87,0-15.55-6.37-17.69-11.89-14.37,10.34-26.87,15.18-39.19,15.18-16.58,0-28.17-7.84-28.17-19.06,0-1.47.21-2.89.63-4.21h-27.02c1.48,2.55,2.28,5.46,2.28,8.46,0,12.2-9.93,22.13-22.13,22.13-16.28,0-29.52-13.24-29.52-29.52,0-.35,0-.71.01-1.07h-7.33c-4.74,0-9.45,1.36-12.93,3.72l-.8.55-.91-.35c-6.99-2.67-27.53-6.35-27.73-6.39l-10.27-1.83,10.27-1.83c.21-.04,20.74-3.72,27.73-6.39l.91-.35.8.55c3.48,2.37,8.2,3.72,12.93,3.72h8.5c4.4-17.66,20.48-30.32,38.8-30.32,16.19,0,31.07,6.73,46.83,13.85,16.74,7.57,34.04,15.39,55.1,16.47h8.45c3.73-3.18,7.52-6.56,11.19-9.82,20.27-18.03,41.23-36.68,66.8-36.68,28.22,0,51.19,22.96,51.19,51.19,0,20.64-16.79,37.44-37.44,37.44ZM322.51,120.55c-3.32,2.19-5.51,5.96-5.51,10.23,0,10.54,8.58,19.12,19.12,19.12,15.9,0,28.83-12.93,28.83-28.83,0-23.48-19.1-42.58-42.58-42.58s-42.17,19.24-48.63,37.9h26.11c3.88-8.42,11.96-13.59,21.36-13.59,4.84,0,7.39,1.72,8.68,3.16,1.04,1.17,1.66,2.59,1.82,4.16,7.73,1.18,13.55,7.81,13.55,15.81v.23s0,.28,0,.28c0,6.69-5.44,12.13-12.13,12.13s-12.13-5.44-12.13-12.13c0-2.11.54-4.13,1.52-5.88ZM102.63,124.98c-.01.36-.02.71-.02,1.07,0,11.54,9.38,20.92,20.92,20.92,5.43,0,10.13-3.22,12.28-7.85-2.18,1.7-4.91,2.7-7.83,2.7-7.01,0-12.72-5.71-12.72-12.72,0-1.41.23-2.8.68-4.11h-13.31ZM190.22,138.9c2.35.49,4.96.74,7.72.74,7.53,0,18.3-1.75,35.72-14.66h-39.17c.47,1.31.71,2.69.71,4.11,0,4-1.94,7.6-4.99,9.82ZM197.51,116.38c-.18-.07-.37-.14-.55-.21-19-6.31-33.98-9.52-44.45-9.52-2.02,0-3.89.12-5.55.36l-.77.11-.62-.47c-2.48-1.87-3.75-4.34-3.58-6.95.1-1.46.65-2.91,1.54-4.16-3.31-.59-6.45-.88-9.53-.88-13.74,0-25.7,8.82-29.86,21.71h93.37Z" fill="#eadabe"/><path d="M322.36,71.74c27.2,0,49.32,22.13,49.32,49.32,0,19.62-15.96,35.58-35.58,35.58-4.88,0-9.44-1.36-13.34-3.71-.61.04-1.21.06-1.8.06-14.2,0-21.77-12.02-21.77-24.74,0-1.78.16-3.49.45-5.12h-29.63c-.95,5.05-1.23,10.4-.66,16-5.73,2.85-10.55,3.98-14.56,3.98-10.85,0-15.75-8.28-16.64-13.1-12.59,9.42-25.8,16.39-40.23,16.39-15.49,0-26.31-7.07-26.31-17.19,0-2.33.59-4.39,1.65-6.07h-33.61c2.55,2.7,4.12,6.33,4.12,10.32,0,11.17-9.09,20.27-20.27,20.27-15.25,0-27.66-12.41-27.66-27.66,0-.98.04-1.96.11-2.93h-9.29c-4.68,0-9.89,1.26-13.98,4.04-7.24-2.77-28.07-6.48-28.07-6.48,0,0,20.83-3.72,28.07-6.48,4.09,2.78,9.3,4.04,13.98,4.04h9.99c3.61-17.29,18.97-30.32,37.32-30.32,15.79,0,30.5,6.65,46.06,13.69,16.92,7.65,34.37,15.53,55.77,16.63h9.23c3.89-3.3,7.8-6.78,11.75-10.29,20.01-17.8,40.7-36.21,65.56-36.21M271.19,118.24h29.87c3.34-8.32,10.89-13.59,20.14-13.59,6.23,0,9.09,3.16,8.63,7.15,7.53.31,13.56,6.52,13.56,14.12,0,.09,0,.17,0,.25,0,.08,0,.17,0,.25,0,5.66-4.61,10.27-10.27,10.27s-10.27-4.61-10.27-10.27c0-4.53,2.95-8.39,7.04-9.74-.21-.01-.43-.02-.64-.02-7.78,0-14.11,6.33-14.11,14.11,0,11.57,9.41,20.98,20.98,20.98,16.93,0,30.7-13.77,30.7-30.7,0-24.51-19.94-44.44-44.44-44.44-19.81,0-43.99,16.51-51.17,41.62M101.68,118.24h107c-.19-.06-.39-.12-.58-.18h0s-.04-.01-.06-.02c-3.57-1.1-7.04-2.32-10.41-3.61-13.45-4.47-31.63-9.65-45.12-9.65-2.06,0-4.01.12-5.82.38-5-3.77-2.56-8.85.75-10.72-4.46-1.03-8.93-1.64-13.44-1.64-15.64,0-28.8,10.86-32.32,25.44M197.94,141.5c14.6,0,27.86-7.78,41.05-18.27-1.09-.02-2.16-.06-3.23-.11h-44.33c1.21,1.68,1.92,3.74,1.92,5.97,0,5.06-3.68,9.28-8.51,10.11,3.58,1.51,8.03,2.3,13.1,2.3M123.53,148.83c8.48,0,15.39-6.9,15.39-15.39,0-.8-.1-1.58-.27-2.33-.95,5.03-5.37,8.85-10.67,8.85-5.99,0-10.86-4.87-10.86-10.86,0-2.21.66-4.26,1.8-5.98h-18.04c-.08.96-.13,1.94-.13,2.93,0,12.56,10.22,22.78,22.78,22.78M322.36,68.01c-26.28,0-47.51,18.89-68.04,37.15-3.49,3.11-7.1,6.31-10.64,9.35h-7.76c-20.67-1.08-37.78-8.82-54.33-16.3-15.94-7.21-31-14.02-47.6-14.02-18.68,0-35.14,12.58-40.23,30.32h-7.08c-4.37,0-8.71-1.24-11.89-3.4l-1.61-1.09-1.81.69c-6.83,2.61-27.19,6.26-27.39,6.3l-20.54,3.67,20.54,3.66c.2.04,20.56,3.69,27.39,6.29l1.81.69,1.61-1.09c3.18-2.16,7.51-3.4,11.89-3.4h5.47c.42,16.94,14.34,30.59,31.38,30.59,13.23,0,23.99-10.76,23.99-23.99,0-2.28-.41-4.51-1.2-6.6h21.76c-.11.77-.17,1.55-.17,2.35,0,12.32,12.35,20.92,30.03,20.92,12.19,0,24.5-4.54,38.44-14.23,2.89,5.47,8.88,10.94,18.44,10.94,4.93,0,10.39-1.47,16.21-4.37l2.3-1.15-.26-2.56c-.41-4-.36-7.99.14-11.9h22.3c-.02.47-.03.93-.03,1.4,0,14.15,8.76,28.47,25.49,28.47.29,0,.59,0,.89-.01,4.35,2.4,9.26,3.67,14.25,3.67,21.67,0,39.3-17.63,39.3-39.3,0-29.25-23.8-53.05-53.05-53.05h0ZM276.42,114.51c7.04-17.23,25.32-34.18,45.94-34.18,22.45,0,40.72,18.27,40.72,40.72,0,14.87-12.1,26.97-26.97,26.97-9.51,0-17.26-7.74-17.26-17.26,0-.94.13-1.86.36-2.73.8,6.96,6.73,12.37,13.9,12.37,7.71,0,13.99-6.28,13.99-13.99,0-.09,0-.17,0-.26,0-.1,0-.18,0-.25,0-8.48-5.85-15.57-13.82-17.4-.36-1.41-1.05-2.71-2.02-3.81-1.54-1.73-4.53-3.79-10.07-3.79-9.74,0-18.16,5.14-22.52,13.59h-22.26ZM106.81,114.51c4.55-10.79,15.14-17.99,27.19-17.99,2.18,0,4.4.15,6.69.46-.31.85-.5,1.72-.56,2.6-.21,3.26,1.32,6.3,4.31,8.56l1.24.94,1.54-.22c1.57-.23,3.35-.35,5.28-.35,8.18,0,19.22,2.02,32.92,6.01h-78.62ZM196.9,126.84h30.96c-11.21,7.6-20.51,10.94-29.91,10.94-1.29,0-2.55-.06-3.76-.17,1.82-2.37,2.89-5.34,2.89-8.52,0-.76-.06-1.51-.18-2.24h0ZM104.49,126.84h9.08c-.12.74-.17,1.49-.17,2.25,0,8.04,6.54,14.58,14.58,14.58.42,0,.83-.02,1.24-.05-1.68.94-3.62,1.48-5.68,1.48-10.24,0-18.62-8.12-19.04-18.26h0Z" fill="#44322a"/><path d="M387.49,116.11c-4.18-16.42-9.91-30.19-24.22-44.04l-1.46-1.41,1.53-1.33c1.57-1.36,3.2-3.08,4.85-5.1l1.11-1.36,1.42,1.02c1.29.92,2.81,1.41,4.39,1.41.19,0,.38,0,.57-.02,3.75-.28,6.74-3.31,6.96-7.06.18-2.93-1.3-5.64-3.86-7.07l-1.56-.87.81-1.6c5.15-10.13,8.95-28.03,9.36-30.03l.31-1.48h3.18l.31,1.48c.42,2.01,4.21,19.9,9.36,30.03l.81,1.6-1.56.87c-2.56,1.43-4.04,4.14-3.86,7.07.22,3.75,3.22,6.79,6.96,7.06.19.01.38.02.57.02,1.59,0,3.11-.49,4.39-1.41l1.42-1.02,1.11,1.36c1.65,2.02,3.28,3.74,4.85,5.1l1.53,1.33-1.46,1.41c-14.32,13.85-20.04,27.62-24.22,44.04l-1.8,7.08-1.8-7.08Z" fill="#eadabe"/><path d="M389.37,19.02c.56,2.73,4.32,20.26,9.52,30.5-3.04,1.7-5.04,5.03-4.81,8.8.28,4.66,4.03,8.47,8.69,8.81.24.02.48.03.71.03,2.04,0,3.94-.65,5.48-1.76,1.67,2.05,3.37,3.86,5.07,5.33-14.97,14.48-20.7,29.09-24.73,44.92-4.03-15.83-9.76-30.44-24.73-44.92,1.7-1.48,3.4-3.29,5.07-5.33,1.54,1.11,3.43,1.76,5.48,1.76.23,0,.47,0,.71-.03,4.65-.34,8.41-4.15,8.69-8.81.23-3.78-1.78-7.1-4.81-8.8,5.21-10.24,8.96-27.77,9.52-30.5h.15M392.4,15.29h-6.21l-.61,2.97c-.41,1.98-4.15,19.64-9.2,29.57l-1.62,3.19,3.13,1.75c1.93,1.08,3.05,3.12,2.91,5.33-.17,2.78-2.47,5.11-5.24,5.32-.15.01-.29.02-.44.02-1.19,0-2.34-.37-3.31-1.06l-2.84-2.04-2.21,2.71c-1.58,1.94-3.14,3.58-4.63,4.88l-3.07,2.66,2.92,2.82c14,13.55,19.61,27.05,23.71,43.17l3.61,14.16,3.61-14.16c4.11-16.11,9.71-29.62,23.71-43.17l2.92-2.82-3.07-2.66c-1.49-1.3-3.05-2.94-4.63-4.88l-2.21-2.71-2.84,2.04c-.97.7-2.11,1.06-3.31,1.06-.14,0-.29,0-.44-.02-2.77-.2-5.08-2.54-5.24-5.32-.13-2.21.98-4.25,2.91-5.33l3.13-1.75-1.62-3.19c-5.04-9.92-8.79-27.58-9.2-29.57l-.61-2.97h0Z" fill="#44322a"/><path d="M389.3,149.23c-6.14,0-11.14-5-11.14-11.14s5-11.14,11.14-11.14,11.14,5,11.14,11.14-5,11.14-11.14,11.14Z" fill="#eadabe"/><path d="M389.3,128.82c5.12,0,9.27,4.15,9.27,9.28s-4.15,9.27-9.27,9.27-9.27-4.15-9.27-9.27,4.15-9.28,9.27-9.28M389.3,125.09c-7.17,0-13,5.83-13,13s5.83,13,13,13,13-5.83,13-13-5.83-13-13-13h0Z" fill="#44322a"/><path d="M442.49,158.5c-20.64,0-37.44-16.79-37.44-37.44,0-28.22,22.96-51.19,51.19-51.19,25.58,0,46.53,18.65,66.8,36.68,3.68,3.27,7.48,6.66,11.19,9.82h8.54c20.96-1.08,38.27-8.9,55-16.47,15.76-7.12,30.64-13.85,46.83-13.85,18.32,0,34.4,12.66,38.8,30.32h8.5c4.74,0,9.45-1.36,12.93-3.72l.8-.55.91.35c6.99,2.67,27.52,6.35,27.73,6.39l10.27,1.83-10.27,1.83c-.21.04-20.74,3.71-27.73,6.39l-.91.35-.8-.55c-3.48-2.36-8.2-3.72-12.93-3.72h-7.33c0,.36.01.71.01,1.07,0,16.28-13.24,29.52-29.52,29.52-12.2,0-22.13-9.93-22.13-22.13,0-3,.79-5.91,2.28-8.46h-27.02c.41,1.32.63,2.74.63,4.21,0,11.22-11.58,19.06-28.17,19.06-12.32,0-24.82-4.83-39.19-15.18-2.13,5.52-7.82,11.89-17.69,11.89-4.64,0-9.82-1.41-15.39-4.18l-1.15-.57.13-1.28c.48-4.7.35-9.39-.37-13.95h-25.91c.11,1.07.17,2.16.17,3.26,0,13.22-8.12,26.6-23.63,26.6-.44,0-.89-.01-1.34-.03-4.19,2.41-8.95,3.68-13.8,3.68ZM456.23,78.48c-23.48,0-42.58,19.1-42.58,42.58,0,15.9,12.94,28.83,28.83,28.83,10.54,0,19.12-8.58,19.12-19.12,0-4.27-2.2-8.03-5.52-10.23.98,1.76,1.52,3.77,1.52,5.89,0,6.69-5.44,12.13-12.13,12.13s-12.13-5.44-12.13-12.13v-.23s0-.29,0-.29c0-8,5.82-14.63,13.55-15.81.16-1.57.78-2.99,1.82-4.16,1.28-1.44,3.83-3.16,8.68-3.16,9.4,0,17.48,5.17,21.36,13.59h26.11c-6.46-18.66-26.2-37.9-48.63-37.9ZM642.79,139.11c2.15,4.63,6.84,7.85,12.28,7.85,11.54,0,20.92-9.38,20.92-20.92,0-.35,0-.71-.02-1.07h-13.31c.45,1.32.68,2.7.68,4.11,0,7.01-5.71,12.72-12.72,12.72-2.93,0-5.66-1-7.83-2.7ZM544.93,124.98c17.42,12.91,28.19,14.66,35.72,14.66,2.77,0,5.37-.25,7.72-.74-3.06-2.22-4.99-5.81-4.99-9.82,0-1.42.24-2.8.71-4.11h-39.17ZM674.46,116.38c-4.16-12.9-16.12-21.71-29.86-21.71-3.08,0-6.22.29-9.53.88.89,1.26,1.44,2.71,1.54,4.16.17,2.61-1.1,5.08-3.58,6.95l-.62.47-.77-.11c-1.66-.24-3.53-.36-5.55-.36-10.47,0-25.45,3.21-44.53,9.55l-.47.18h93.38Z" fill="#eadabe"/><path d="M456.23,71.74c24.87,0,45.56,18.41,65.56,36.21,3.95,3.51,7.85,6.99,11.75,10.29h9.23c21.4-1.1,38.85-8.99,55.77-16.63,15.57-7.04,30.27-13.69,46.06-13.69,18.35,0,33.71,13.03,37.32,30.32h9.99c4.68,0,9.89-1.26,13.98-4.04,7.24,2.77,28.07,6.48,28.07,6.48,0,0-20.83,3.72-28.07,6.48-4.1-2.78-9.3-4.04-13.98-4.04h-9.29c.07.97.11,1.94.11,2.93,0,15.25-12.41,27.66-27.66,27.66-11.18,0-20.27-9.09-20.27-20.27,0-3.99,1.57-7.63,4.12-10.32h-33.61c1.06,1.69,1.65,3.74,1.65,6.07,0,10.12-10.82,17.19-26.31,17.19-14.44,0-27.64-6.97-40.23-16.39-.89,4.82-5.79,13.1-16.64,13.1-4.01,0-8.83-1.13-14.56-3.98.57-5.6.29-10.95-.66-16h-29.63c.3,1.63.45,3.34.45,5.12,0,12.73-7.56,24.74-21.77,24.74-.59,0-1.19-.02-1.8-.06-3.9,2.36-8.46,3.71-13.34,3.71-19.62,0-35.58-15.96-35.58-35.58,0-27.2,22.13-49.32,49.33-49.32M442.48,151.76c11.57,0,20.98-9.41,20.98-20.98,0-7.78-6.33-14.11-14.11-14.11-.22,0-.43.01-.64.02,4.08,1.36,7.04,5.21,7.04,9.74,0,5.66-4.61,10.27-10.27,10.27s-10.27-4.61-10.27-10.27c0-.09,0-.17,0-.25,0-.08,0-.17,0-.25,0-7.6,6.03-13.82,13.56-14.12-.47-3.99,2.39-7.15,8.63-7.15,9.25,0,16.8,5.27,20.14,13.59h29.87c-7.18-25.12-31.36-41.62-51.17-41.62-24.51,0-44.44,19.94-44.44,44.44,0,16.93,13.77,30.7,30.7,30.7M631.91,105.16c-1.81-.26-3.76-.38-5.82-.38-13.48,0-31.67,5.18-45.12,9.65-3.37,1.29-6.84,2.51-10.41,3.61-.02,0-.04.01-.06.02h0c-.19.06-.39.12-.58.18h107c-3.52-14.58-16.67-25.44-32.32-25.44-4.52,0-8.98.61-13.44,1.64,3.32,1.88,5.76,6.95.75,10.72M650.62,139.95c-5.3,0-9.72-3.82-10.67-8.85-.18.75-.27,1.53-.27,2.33,0,8.48,6.9,15.39,15.39,15.39,12.56,0,22.78-10.22,22.78-22.78,0-.99-.05-1.96-.13-2.93h-18.04c1.14,1.71,1.8,3.77,1.8,5.98,0,5.99-4.87,10.86-10.86,10.86M580.65,141.5c5.07,0,9.52-.79,13.1-2.3-4.83-.84-8.51-5.05-8.51-10.11,0-2.22.71-4.28,1.92-5.97h-44.33c-1.07.05-2.15.09-3.23.11,13.19,10.5,26.45,18.27,41.05,18.27M456.23,68.01c-29.25,0-53.05,23.8-53.05,53.05,0,21.67,17.63,39.3,39.3,39.3,4.99,0,9.9-1.26,14.25-3.67.3,0,.59.01.89.01,16.73,0,25.49-14.32,25.49-28.47,0-.47,0-.94-.03-1.4h22.3c.5,3.91.54,7.9.14,11.9l-.26,2.56,2.3,1.15c5.83,2.9,11.28,4.37,16.21,4.37,9.56,0,15.55-5.47,18.44-10.94,13.94,9.69,26.25,14.23,38.44,14.23,17.68,0,30.03-8.6,30.03-20.92,0-.8-.06-1.58-.17-2.35h21.76c-.79,2.09-1.2,4.32-1.2,6.6,0,13.23,10.76,23.99,23.99,23.99,17.04,0,30.95-13.65,31.38-30.59h5.47c4.37,0,8.71,1.24,11.89,3.4l1.61,1.09,1.81-.69c6.83-2.61,27.19-6.26,27.39-6.29l20.54-3.66-20.54-3.67c-.2-.04-20.56-3.69-27.39-6.3l-1.81-.69-1.61,1.09c-3.18,2.16-7.52,3.4-11.89,3.4h-7.08c-5.09-17.74-21.55-30.32-40.23-30.32-16.6,0-31.66,6.81-47.6,14.02-16.55,7.48-33.66,15.22-54.33,16.3h-7.76c-3.54-3.03-7.15-6.24-10.64-9.35-20.53-18.27-41.75-37.15-68.04-37.15h0ZM442.48,148.03c-14.87,0-26.97-12.1-26.97-26.97,0-22.45,18.27-40.72,40.72-40.72,20.62,0,38.9,16.95,45.94,34.18h-22.26c-4.37-8.44-12.78-13.59-22.52-13.59-5.54,0-8.53,2.06-10.07,3.79-.98,1.1-1.66,2.39-2.02,3.81-7.97,1.83-13.82,8.93-13.82,17.4,0,.09,0,.17,0,.25,0,.08,0,.17,0,.25,0,7.71,6.28,13.99,13.99,13.99,7.17,0,13.09-5.42,13.9-12.37.24.87.36,1.78.36,2.73,0,9.52-7.74,17.26-17.26,17.26h0ZM637.91,96.98c2.29-.31,4.51-.46,6.69-.46,12.04,0,22.63,7.2,27.19,17.99h-78.62c13.7-3.99,24.75-6.01,32.92-6.01,1.93,0,3.71.12,5.28.35l1.54.22,1.24-.94c3-2.26,4.53-5.3,4.32-8.56-.06-.88-.25-1.75-.56-2.6h0ZM665.03,126.84h9.08c-.42,10.14-8.8,18.26-19.04,18.26-2.06,0-4-.54-5.68-1.48.41.03.82.05,1.24.05,8.04,0,14.58-6.54,14.58-14.58,0-.76-.06-1.51-.17-2.25h0ZM550.74,126.84h30.96c-.12.74-.18,1.49-.18,2.24,0,3.19,1.07,6.15,2.89,8.52-1.2.11-2.46.17-3.75.17-9.41,0-18.7-3.34-29.91-10.94h0Z" fill="#44322a"/></svg>